<svg width="385" height="13" viewBox="0 0 385 13" fill="none" xmlns="http://www.w3.org/2000/svg">
<mask id="mask0_2402_1178" style="mask-type:alpha" maskUnits="userSpaceOnUse" x="0" y="0" width="385" height="13">
<rect y="0.0224609" width="385" height="12" fill="#C4C4C4"/>
</mask>
<g mask="url(#mask0_2402_1178)">
<path d="M57.8282 -2.5155L58.7692 -2.67368L56.9381 -2.90045L57.8159 -3.06645C58.696 -3.06494 59.8364 -2.8162 60.4569 -2.94837C60.5328 -3.07633 59.5744 -3.1174 59.3298 -3.21935C59.1134 -3.32385 58.9368 -3.42767 58.802 -3.52956C59.2814 -3.52846 59.8083 -3.50382 60.3517 -3.45707C61.0825 -3.38072 61.7993 -3.34361 62.423 -3.34983C63.6986 -3.32921 64.9308 -3.34978 66.3175 -3.34525L65.8561 -3.65321L67.6433 -3.58116C67.8327 -3.5577 68.0585 -3.59543 68.2446 -3.56641C69.7934 -3.32083 70.4488 -3.45465 71.1923 -3.56561C71.3448 -3.59432 71.5284 -3.61576 71.7384 -3.62936C73.8045 -3.57053 75.6677 -3.22632 77.5284 -3.04961C77.8786 -3.00449 78.2145 -2.94658 78.5123 -2.87997C79.1595 -2.75049 79.8794 -2.64478 80.6061 -2.5725C81.3329 -2.50023 82.0433 -2.4637 82.6724 -2.46625C84.0636 -2.46911 85.6353 -2.38347 87.2355 -2.21762C87.7113 -2.16299 88.1875 -2.12695 88.6336 -2.1118C89.0797 -2.09665 89.4861 -2.10271 89.8265 -2.12961L90.9084 -1.95381C91.3774 -2.02514 91.972 -2.06429 92.6563 -2.06885C93.3405 -2.07341 94.1001 -2.04331 94.8889 -1.98037C95.7295 -1.91209 96.5834 -1.86606 97.4555 -1.79387C99.2571 -1.65586 101.011 -1.57146 102.661 -1.54329C105.119 -1.45979 107.521 -1.39524 110.001 -1.29115C111.552 -1.2409 113.064 -1.21327 114.527 -1.20839C116.279 -1.18873 118.174 -1.09359 120.121 -0.927558V-0.927558C120.029 -0.771778 119.175 -0.8178 118.602 -0.823072C116.754 -0.848964 114.862 -0.916058 112.96 -0.96646C112.103 -0.986134 111.27 -0.993586 110.466 -0.988761C109.12 -0.995219 107.702 -1.03673 106.235 -1.11258C103.918 -1.19603 101.675 -1.23615 99.5288 -1.23252C99.3606 -1.22635 99.2064 -1.21542 99.0689 -1.1999C99.0402 -1.18646 99.0346 -1.16952 99.0525 -1.15069C99.0704 -1.13187 99.1113 -1.11178 99.1712 -1.09238C99.2311 -1.07297 99.308 -1.05489 99.3947 -1.03985C99.4813 -1.02482 99.5748 -1.01333 99.666 -1.00651C100.518 -0.900939 101.434 -0.787552 102.238 -0.771601C102.269 -0.770409 102.302 -0.767687 102.335 -0.76363C102.367 -0.759572 102.399 -0.754282 102.427 -0.748141C104.227 -0.525269 105.706 -0.562984 107.108 -0.526724C109.435 -0.428723 111.679 -0.382947 113.805 -0.390087C114.126 -0.389601 114.473 -0.376862 114.833 -0.352328C117.059 -0.252879 119.141 -0.241756 120.981 -0.319463C121.738 -0.339149 122.442 -0.383344 123.255 -0.384083C123.757 -0.387125 124.193 -0.415327 124.538 -0.467002C124.883 -0.518678 125.13 -0.592757 125.264 -0.684785C125.607 -0.636333 125.956 -0.593152 126.305 -0.555759C126.514 -0.534378 126.715 -0.528699 126.866 -0.539887C127.017 -0.551076 127.108 -0.578295 127.121 -0.61604C127.183 -0.721747 126.706 -0.774833 126.293 -0.8201C126.542 -0.842771 126.823 -0.856107 127.129 -0.859789C128.853 -0.883943 130.703 -0.855435 132.637 -0.774891C134.138 -0.678482 135.337 -0.756952 136.917 -0.620995C137.106 -0.597535 137.262 -0.631969 137.437 -0.640237C137.891 -0.683775 138.458 -0.693561 139.087 -0.668739C139.716 -0.643916 140.388 -0.585235 141.046 -0.497783C141.865 -0.736705 143.635 -0.463758 144.942 -0.439228C145.345 -0.317724 144.883 -0.339085 144.863 -0.305703C144.843 -0.272322 144.863 -0.305711 144.705 -0.325261C143.4 -0.153191 141.612 -0.11567 139.592 -0.217973C139.219 -0.217549 138.863 -0.209709 138.528 -0.194532C138.021 -0.17305 137.449 -0.175195 136.837 -0.200873C136.169 -0.219732 135.556 -0.210775 135.026 -0.174435C134.721 -0.175027 134.463 -0.156822 134.276 -0.121496C134.09 -0.0861701 133.98 -0.0348678 133.957 0.0276418C134.161 0.0758309 134.386 0.119925 134.625 0.158173C135.873 0.309191 137.118 0.371701 138.114 0.333404C139.847 0.26742 141.91 0.331811 143.753 0.309284C144.999 0.300158 146.325 0.326152 147.706 0.38678C147.706 0.38678 147.67 0.447979 147.666 0.453543C147.83 0.48004 148.001 0.501299 148.172 0.516105C148.172 0.516105 148.172 0.516105 148.188 0.488287C148.112 0.461574 148.01 0.436443 147.892 0.415805L147.482 0.364972C147.761 0.351744 148.021 0.312359 148.312 0.336422C148.924 0.381129 149.51 0.400003 150.033 0.391922C150.556 0.383842 151.006 0.348969 151.356 0.289399C151.976 0.213052 152.747 0.178332 153.619 0.187482C154.287 0.179147 154.931 0.161233 155.548 0.133829C155.548 0.133829 155.588 0.0670721 155.88 0.0315899C155.603 -0.0121733 155.315 -0.0479088 155.028 -0.0739772C153.779 -0.139106 152.526 -0.198672 151.299 -0.2432C150.847 -0.24801 150.421 -0.240549 150.032 -0.220963C148.952 -0.198044 147.738 -0.230573 146.462 -0.316654C146.462 -0.316654 146.21 -0.347933 146.084 -0.363573C146.442 -0.510326 147.676 -0.363409 148.176 -0.462794C148.479 -0.460985 149.014 -0.448487 148.996 -0.474652C148.954 -0.509566 148.949 -0.542001 148.981 -0.569631C149.013 -0.59726 149.082 -0.6194 149.181 -0.634461C149.281 -0.649522 149.409 -0.657136 149.558 -0.656749C149.706 -0.656362 149.87 -0.647982 150.038 -0.632221C151.443 -0.546957 152.767 -0.523246 153.928 -0.562541C154.368 -0.561782 154.861 -0.536511 155.298 -0.530189C155.565 -0.522574 155.809 -0.526809 156.017 -0.54266C157.072 -0.659403 158.492 -0.667928 160.064 -0.566957C160.824 -0.530655 161.533 -0.525801 162.157 -0.552641C162.6 -0.557446 162.788 -0.474445 163.104 -0.435345L164.444 -0.352921L162.723 -0.249641C163.091 -0.012957 163.383 0.0650861 163.984 0.0798314C164.862 0.102099 165.716 0.112159 166.542 0.109949C167.153 0.108003 167.658 0.0570311 168.485 0.147565C168.631 0.162332 168.772 0.167112 168.884 0.161102C169.853 0.0807277 171.02 0.0622814 172.305 0.107023C172.97 -0.043485 174.103 0.102848 175.152 0.220752C175.49 0.10738 174.877 0.0553381 174.511 -0.0138367C175.388 -0.00675583 176.271 -0.010799 177.177 0.00575546C177.449 -0.000271517 177.76 0.0100378 178.086 0.0358712C178.412 0.0617046 178.743 0.102354 179.054 0.154644C179.205 0.18843 179.388 0.213858 179.564 0.225648C179.74 0.237438 179.896 0.234687 179.999 0.217966C180.469 0.168653 181.221 0.214073 181.61 0.130775C181.748 0.111618 181.945 0.108943 182.166 0.123219C182.387 0.137495 182.618 0.167798 182.817 0.208694V0.208694C182.599 0.221453 182.405 0.241547 182.24 0.26853C181.645 0.356186 181.864 0.502648 182.619 0.71558C183.778 0.70387 184.962 0.707196 186.036 0.667064C186.635 0.631039 187.369 0.642301 188.155 0.699584C188.941 0.756868 189.748 0.857901 190.486 0.991324C190.753 1.04263 191.058 1.07816 191.339 1.09087C191.62 1.10358 191.858 1.09253 192.005 1.05991C192.096 1.02219 192.124 0.974445 192.087 0.920823L191.329 0.826986C191.329 0.826986 191.359 0.776913 191.366 0.765786L192.455 0.757373C193.031 0.757082 193.632 0.771831 194.177 0.767629C194.977 0.739685 195.891 0.755261 196.861 0.81339C197.756 0.872995 198.636 0.918049 199.492 0.948155C200.321 0.979144 200.922 0.880355 201.71 0.864579C202.307 0.852687 202.963 0.865395 203.654 0.902207C204.847 0.967496 205.942 0.967617 206.839 0.902558C207.885 1.25308 208.393 1.31007 209.364 1.21536L209.821 1.1883L209.946 1.26348L210.295 1.24695C210.947 1.23222 211.6 1.2175 212.281 1.21225C213.227 1.24478 214.25 1.3323 215.248 1.46626C215.437 1.48972 215.695 1.56943 215.861 1.63183C216.028 1.69424 216.39 1.8825 216.657 2.00505C216.366 2.09452 216.045 2.18007 215.814 2.28292C215.791 2.30049 215.793 2.32144 215.821 2.34409C215.848 2.36674 215.9 2.39045 215.972 2.41333C216.045 2.4362 216.135 2.45759 216.236 2.47579C216.338 2.49399 216.447 2.50849 216.556 2.51811C216.768 2.53885 216.978 2.55268 217.176 2.55902C218.151 2.56996 219.085 2.56183 219.969 2.5347C220.291 2.49644 220.733 2.4928 221.224 2.52438C221.715 2.55596 222.226 2.62094 222.678 2.70902C223.834 2.65614 225.178 2.67176 226.616 2.75479C228.137 2.70429 229.974 2.80642 231.395 2.69577C231.362 2.75141 231.509 2.8472 231.713 2.90238C232.037 2.98621 232.403 3.0639 232.797 3.13216L235.802 3.26543C235.914 3.33396 236.054 3.40333 236.221 3.47265C236.335 3.5274 236.534 3.58097 236.775 3.62201C237.017 3.66306 237.282 3.68834 237.514 3.69251C238.112 3.71282 238.613 3.66741 239.326 3.77959C238.228 3.88564 236.747 3.87155 235.148 3.73984C233.645 3.63966 232.199 3.5896 230.864 3.5915C230.424 3.59075 229.844 3.59659 229.707 3.65719C229.402 3.82846 228.605 3.80138 227.675 3.76979C226.944 3.73521 226.277 3.73909 225.727 3.78111C225.178 3.82314 224.763 3.90211 224.515 4.01153C224.453 4.11723 224.603 4.20746 225.244 4.26897L227.91 4.51562C228.304 4.48391 228.676 4.44637 229.028 4.40316C229.619 4.34578 230.35 4.33002 231.163 4.35713C231.975 4.38424 232.848 4.45349 233.713 4.55947C234.155 4.61421 234.597 4.66895 234.918 4.64294C235.199 4.61306 235.458 4.57729 235.693 4.53589C235.74 4.50814 235.759 4.4762 235.749 4.44131C235.919 4.45754 236.089 4.47863 236.254 4.50387C237.57 4.79831 238.59 4.79321 239.516 4.71684C239.767 4.69414 239.958 4.65805 240.212 4.62979C240.466 4.60152 240.555 4.56484 240.786 4.57552C242.627 4.67208 243.157 4.34955 244.708 4.3625C244.783 4.34991 244.83 4.33107 244.844 4.30773C244.858 4.2844 244.838 4.25732 244.787 4.22898C244.677 4.20339 244.551 4.18139 244.418 4.16499C244.286 4.14859 244.152 4.13833 244.029 4.13514C243.315 4.09375 242.685 4.10644 242.246 4.17104C241.935 4.19744 241.605 4.21848 241.26 4.23403L239.706 3.76696C241.211 3.80978 242.634 3.8095 243.943 3.76613C244.228 3.74177 244.712 3.78373 245.114 3.79171L248.07 3.83536C248.678 3.83898 249.196 3.76576 250.043 3.93644C250.043 3.93644 250.603 3.96397 250.752 3.94066C250.902 3.91736 251.564 3.77241 251.959 3.67799C252.417 3.70491 253.052 3.77755 253.337 3.7532C253.836 3.69338 254.268 3.61669 254.625 3.52451L256.411 3.6561C256.409 3.773 256.344 3.88298 256.216 3.98435C256.077 4.08212 256.082 4.19948 256.23 4.32683C256.379 4.45419 256.666 4.58792 257.07 4.71711L258.833 5.40131C259.121 5.44713 259.428 5.47797 259.712 5.48965C259.996 5.50133 260.243 5.49328 260.421 5.46659C261.18 5.38736 262.03 5.32542 262.788 5.24619C263.767 5.3674 263.515 5.56318 264.227 5.73491L266.531 6.02034C266.883 6.28484 267.241 6.53822 266.172 6.62677C265.959 6.64225 266.103 6.7436 265.909 6.78525C266.74 6.98375 267.654 7.04317 268.496 7.16543C268.828 7.25336 269.106 7.34643 269.316 7.44016C269.546 7.58128 270.014 7.72544 270.617 7.8415C271.22 7.95756 271.911 8.03621 272.54 8.06047C273.596 8.13478 274.676 8.24638 275.734 8.39028C276.095 8.44032 276.466 8.47678 276.822 8.49719C277.178 8.51761 277.511 8.52152 277.798 8.50865C278.821 8.48599 279.687 8.40808 280.34 8.27998C280.985 8.17127 281.855 8.11887 282.87 8.12754C284.606 8.3426 284.957 8.66665 286.007 8.95206L284.192 8.98406C284.127 9.09533 284.247 9.23563 283.503 9.23306C282.759 9.23049 283.136 9.33696 283.377 9.44447C283.462 9.49856 283.628 9.55419 283.847 9.60196C284.066 9.64972 284.324 9.68668 284.578 9.70658L286.123 9.8442C286.671 9.89657 287.201 9.91893 287.655 9.90883C288.109 9.89873 288.47 9.85656 288.698 9.78695C288.96 9.72084 289.321 9.67613 289.759 9.65555C290.317 9.60162 290.776 9.52142 291.119 9.41798L293.301 9.56869C293.393 9.46474 293.693 9.39186 294.149 9.36236C294.605 9.33286 295.189 9.34854 295.803 9.40678L297.273 9.49928C298.907 9.6002 299.266 9.56698 299.745 9.27392L297.784 8.75045C298.069 8.61257 298.344 8.49137 298.62 8.37018C298.131 8.19773 297.48 8.03461 296.731 7.8974C296.032 7.74997 295.314 7.60718 294.579 7.46958C293.781 7.32897 292.938 7.20671 291.948 7.0482C291.775 6.99693 291.524 6.90609 291.203 6.81858C290.882 6.73353 290.547 6.65016 290.199 6.5688C290.265 6.45753 290.324 6.35739 290.197 6.22822C290.807 6.26943 291.437 6.34152 292.031 6.43797C292.625 6.53443 293.163 6.65222 293.597 6.78073C293.67 6.80352 293.76 6.82492 293.86 6.8435C293.96 6.86207 294.068 6.87739 294.177 6.8884C295.249 6.96736 295.761 7.13231 296.285 7.33457C296.638 7.43795 297.093 7.52977 297.587 7.59728C298.534 7.71458 299.461 7.86526 300.367 7.99535C300.644 8.03869 300.932 8.07437 301.219 8.10091C302.166 8.1853 303.118 8.3033 304.029 8.44891C304.326 8.48592 304.611 8.53489 304.86 8.59174C305.11 8.64859 305.316 8.71165 305.462 8.77568C305.236 8.84582 305.115 8.93436 305.104 9.03596C305.065 9.10272 305.729 9.23882 306.044 9.33747C306.358 9.43611 305.742 9.38964 305.533 9.39956C304.674 9.41864 304.515 9.45863 305.029 9.67758C305.201 9.74642 305.315 9.81531 305.364 9.87995C305.413 9.94459 305.396 10.0036 305.315 10.0534C305.193 10.2592 304.821 10.4282 304.566 10.6296C304.962 10.7622 305.624 10.9038 305.696 11.068C305.73 11.1045 305.804 11.1431 305.91 11.181C306.017 11.219 306.154 11.2554 306.311 11.2876C306.727 11.3571 307.105 11.4402 307.416 11.5305C307.726 11.6207 307.962 11.7158 308.104 11.8082C308.15 11.8464 308.262 11.887 308.418 11.9217C308.573 11.9565 308.76 11.9829 308.942 11.9956C309.158 12.0112 309.352 12.0091 309.484 11.9898C309.615 11.9705 309.673 11.9354 309.647 11.8918C309.652 11.8099 309.624 11.7245 309.561 11.6363C309.597 11.5751 309.634 11.5139 309.49 11.4126C310.137 11.4496 310.817 11.5237 311.455 11.6269C312.093 11.7301 312.664 11.8585 313.108 11.998C313.599 12.1424 314.051 12.294 314.595 12.4628C314.483 12.652 314.483 12.652 315.64 12.9864L321.779 13.1495L323.037 13.371C324.21 13.5641 324.489 13.5509 325.226 13.4511L325.722 13.3572C326.764 13.4863 327.964 13.6349 328.615 13.3931C328.827 13.5507 328.965 13.6036 328.917 13.6275C328.606 13.8601 328.065 14.0574 327.317 14.2117C327.126 14.2478 326.992 14.3028 326.769 14.335C326.052 14.5166 325.886 14.7972 326.304 15.1194C326.512 15.262 326.814 15.408 327.2 15.5528C326.635 15.7537 325.886 15.9201 324.975 16.0476C324.201 16.1463 323.564 16.2784 323.082 16.4402C322.649 16.6033 322 16.726 321.173 16.8011C320.754 16.833 320.448 16.896 320.286 16.9837C320.238 17.2214 320.349 17.4758 320.616 17.7413C320.667 17.8221 320.81 17.9094 321.035 17.9963C321.26 18.0832 321.56 18.1673 321.912 18.2422C321.912 18.2422 322.082 18.299 322.163 18.333C322.231 18.6208 321.977 18.8744 321.417 19.0767C321.326 19.1341 321.138 19.1756 320.875 19.1967C320.612 19.2177 320.283 19.2176 319.923 19.1962C319.164 19.162 318.455 19.1577 317.721 19.1385C316.93 19.1112 316.233 19.1327 315.704 19.2006C315.175 19.2685 314.833 19.3804 314.714 19.5244C314.706 19.5652 314.683 19.6042 314.644 19.6412C314.622 19.6603 314.61 19.6808 314.608 19.7024L316.294 20.174L314.387 20.3618C314.275 20.551 315.19 20.6644 315.649 20.8048L315.365 20.8831C315 20.9275 314.508 20.8427 314.063 20.7935L313.621 20.7388L313.568 20.8278C313.293 20.949 312.29 20.8127 311.898 20.9016C311.507 20.9905 311.786 21.0908 312.373 21.1873C312.78 21.2591 313.218 21.3163 313.653 21.3546C314.088 21.393 314.509 21.4115 314.885 21.4088C315.108 21.3993 315.294 21.3776 315.431 21.3451C316.222 21.2065 317.097 21.0873 318.048 20.9884C318.777 20.8997 319.69 20.8619 320.723 20.8778C321.026 20.8711 321.391 20.8921 321.755 20.9372C322.119 20.9822 322.458 21.0484 322.712 21.1241V21.1241L323.247 21.1366C323.247 21.1366 323.539 21.2147 323.498 21.2275C323.294 21.4587 323.531 21.7414 324.172 22.0336V22.0336L323.614 22.0601C322.817 22.033 323.323 22.2091 323.203 22.2958C322.637 22.2794 321.901 22.2062 321.633 22.3162L321.231 22.3083L321.388 22.3278L321.579 22.2917L322.329 22.4563C321.974 22.4839 321.716 22.5177 321.403 22.5326C321.229 22.5456 321.091 22.5684 320.997 22.5999C320.903 22.6313 320.854 22.6706 320.854 22.7155C320.855 22.7845 320.761 22.8426 320.582 22.8842C320.403 22.9258 320.145 22.9495 319.832 22.9532C319.458 22.9547 319.244 23.0297 319.025 23.0563L319.977 23.5086C319.977 23.5086 319.503 23.45 319.761 23.5297L319.794 23.4741L320.371 23.5873C320.787 23.6865 321.077 23.7106 321.323 23.6395C321.568 23.5684 321.512 23.6629 321.63 23.6357C321.587 23.7081 321.32 23.7586 321.091 23.8019C320.826 23.8359 320.527 23.8609 320.199 23.8766C320.79 24.1946 320.819 24.2041 319.955 24.2883C319.092 24.3725 319.39 24.499 318.668 24.517C317.945 24.535 318.767 24.7502 319.25 24.7922C319.609 24.8198 319.974 24.8627 320.321 24.9181C320.669 24.9735 320.99 25.04 321.263 25.1131L321.118 25.3579C320.905 25.3376 320.692 25.3112 320.486 25.2797C319.786 25.1452 319.15 25.0186 318.527 25.0968L318.824 25.2828L316.651 25.175C316.707 25.3144 317.039 25.4731 317.575 25.6178V25.6178C317.494 25.6973 317.444 25.7809 317.426 25.8682C317.39 25.9294 317.176 25.8909 317.036 25.8975C316.539 25.9077 316.13 25.9492 315.847 26.0183C315.564 26.0873 315.415 26.1818 315.412 26.2935C315.356 26.3881 316.121 26.5844 316.599 26.5779C317.793 26.5968 319.085 26.6695 320.403 26.7922C321.207 26.8082 321.32 26.5595 322.643 26.7293C322.669 26.8441 322.5 26.9371 322.16 26.9941C321.821 27.0512 321.33 27.0693 320.761 27.0456C321.085 27.3006 322.875 27.3671 322.954 27.6337C322.508 27.6149 322.032 27.5706 321.571 27.5052C321.111 27.4398 320.682 27.3555 320.329 27.2608C320.252 27.2374 320.157 27.2159 320.05 27.1982C319.944 27.1805 319.83 27.1672 319.72 27.1594C319.609 27.1517 319.506 27.1499 319.419 27.1541C319.332 27.1583 319.264 27.1684 319.222 27.1835C319.47 27.2798 319.743 27.3913 320.054 27.4955C320.365 27.5997 320.44 27.6448 320.664 27.6666C322.337 27.8738 323.133 28.2471 324.58 28.4921C324.959 28.539 325.006 28.6881 324.678 28.6713C324.365 28.6544 324.081 28.6566 323.859 28.6777C323.638 28.6987 323.486 28.7377 323.421 28.7904C323.178 28.8518 322.876 28.9007 322.521 28.9358C324.006 29.3188 325.776 29.6572 327.666 29.9192C328.023 29.971 328.397 30.0026 328.73 30.0093C329.785 30.0097 330.904 30.0401 332.066 30.0999C332.477 30.1162 332.858 30.1147 333.186 30.0954C334.264 30.0497 335.12 30.1497 335.902 30.4317L337.195 30.8786C337.153 30.9509 336.935 31.0315 336.768 31.1422L337.779 31.3808L345.492 30.8312L347.04 31.3634L349.261 31.3338C349.431 31.3492 349.602 31.3703 349.766 31.3963C350.215 31.5535 350.566 31.7045 351.053 31.8544C351.54 32.0043 352.411 32.0225 353.018 32.1992C353.625 32.3759 354.232 32.3795 354.983 32.4845C355.054 32.6212 354.981 32.7444 354.769 32.8461C354.7 32.9629 354.318 33.0351 354.252 33.1464C354.26 33.2588 354.118 33.3543 353.84 33.4242C353.562 33.494 353.156 33.536 352.66 33.5463C351.27 33.7858 349.594 33.9563 347.683 34.0527C347.515 34.0597 347.376 34.0759 347.274 34.1002C347.172 34.1246 347.11 34.1566 347.091 34.1943C347.094 34.3035 346.966 34.3978 346.718 34.4704C346.47 34.543 346.107 34.592 345.656 34.6138C345.536 34.6182 345.446 34.6319 345.396 34.6532C345.225 34.667 345.1 34.6933 345.034 34.7296C344.968 34.7659 344.963 34.8111 345.019 34.8606C345.074 34.9101 345.189 34.9624 345.353 35.0124C345.516 35.0624 345.722 35.1084 345.951 35.146C346.283 35.2065 346.622 35.2644 346.966 35.3195C346.947 35.3529 346.604 35.3583 346.654 35.3884C346.789 35.4844 346.821 35.5743 346.746 35.6511C346.671 35.7278 346.492 35.7893 346.223 35.8306L348.066 36.6084C349.185 36.7161 350.283 36.8988 351.151 37.1218C351.152 37.1583 351.102 37.1889 351.006 37.2105C350.91 37.2322 350.771 37.2441 350.603 37.2451C350.153 37.261 349.728 37.292 349.243 37.3095C348.947 37.3227 348.7 37.3516 348.518 37.3946C348.335 37.4376 348.22 37.4938 348.18 37.56L349.262 37.8494C348.916 37.9199 348.658 37.9537 348.429 37.997C348.559 38.0879 348.782 38.182 349.082 38.2719C349.381 38.3617 349.748 38.4451 350.155 38.5154C350.265 38.5298 350.376 38.5404 350.483 38.5465C350.59 38.5526 350.69 38.554 350.778 38.5507C351.617 38.4515 352.597 38.6267 353.549 38.7924C354.502 38.9581 355.019 39.058 355.722 39.1868L357.067 39.2041C357.407 39.2652 357.711 39.3369 357.954 39.4137C358.197 39.4904 358.372 39.57 358.465 39.6461C358.393 39.7685 357.755 39.7014 357.375 39.714C356.473 39.7902 355.286 39.774 354.013 39.668C353.697 39.6289 353.374 39.6605 353.067 39.6642C352.404 39.6794 351.767 39.7042 351.159 39.7385C350.758 39.7703 350.384 39.8098 350.038 39.8565C349.946 40.0123 351.4 40.1326 350.575 40.2096C350.859 40.2448 350.965 40.2938 351.111 40.276C352.047 40.3772 352.969 40.4272 353.771 40.4203C355.309 40.3988 357.055 40.4698 358.867 40.6274C360.822 40.7907 362.698 40.8593 364.339 40.8275C364.965 40.8256 365.663 40.8591 366.382 40.9252C367.232 41.0169 368.075 41.0746 368.858 41.0945C369.117 41.0952 369.406 41.1108 369.7 41.14C369.995 41.1692 370.288 41.2113 370.554 41.2627V41.2627C370.531 41.3017 370.277 41.33 370.334 41.3489C371.144 41.6403 371.472 41.9438 372.719 42.2415C373.571 42.3471 374.55 42.4683 375.107 42.3283C375.665 42.1883 375.465 42.068 374.356 41.7097C374.596 41.7045 374.886 41.7213 375.175 41.757C375.463 41.7927 375.732 41.8452 375.934 41.9052L376.893 42.1733L377.758 42.4297C377.682 42.5577 377.623 42.6578 377.56 42.7635C377.461 42.8758 377.57 43.0125 377.871 43.1543C378.052 43.2318 378.211 43.3093 378.344 43.3861C378.884 43.6932 379.041 43.9835 378.796 44.2244C378.326 44.5707 377.672 44.8894 376.842 45.1768C375.964 45.4563 375.484 45.8089 374.762 46.1135C374.393 46.2522 373.945 46.3766 373.423 46.4852C372.433 46.7268 371.348 46.9567 370.354 47.2039C369.36 47.4511 368.238 47.6287 367.135 47.8324C365.492 48.0742 363.716 48.283 361.817 48.4577C360.642 48.6108 359.435 48.7599 358.348 48.9358C357.064 49.1341 355.556 49.2765 353.861 49.3595C352.364 49.4588 351.026 49.6057 349.874 49.7973C349.753 49.818 349.658 49.8444 349.59 49.8756C349.383 50.071 348.801 50.2088 347.934 50.2678C347.987 50.325 348.054 50.3831 348.136 50.442C348.256 50.5122 348.282 50.5779 348.208 50.6305C348.135 50.6832 347.966 50.7204 347.724 50.7374C347.031 50.7858 346.455 50.868 346.021 50.9803C345.862 51.0085 345.763 51.0496 345.733 51.1C345.704 51.1503 345.743 51.2086 345.85 51.2696C345.944 51.3325 345.951 51.3903 345.87 51.4356C345.788 51.4809 345.623 51.5116 345.394 51.5237C344.807 51.5832 344.179 51.6311 343.513 51.667C342.096 51.7462 340.448 51.7453 338.669 51.6642C338.48 51.6408 338.289 51.6769 338.068 51.6495C336.809 51.5587 335.641 51.5446 334.703 51.609C333.604 51.6341 332.454 51.6291 331.295 51.6408C329.621 51.633 328.076 51.6807 326.704 51.7828C325.136 51.6842 324.255 51.8557 322.931 51.859C321.709 51.8766 320.551 51.9189 319.468 51.9854C317.721 52.0737 315.981 52.1508 314.259 52.254C312.644 52.3033 311.157 52.3974 309.823 52.5347C309.312 52.5968 308.386 52.5001 308.038 52.6302C307.69 52.7602 306.988 52.7449 306.42 52.788L304.628 52.8946C304.32 52.92 303.981 52.936 303.617 52.9426C301.952 52.9513 300.798 53.1249 299.252 53.1604L299.094 53.1408C296.349 53.399 293.208 53.5407 289.763 53.5617C287.751 53.6409 285.55 53.6371 283.415 53.6951C282.905 53.8112 281.703 53.6682 281.064 53.7742C280.425 53.8802 279.381 53.8107 278.558 53.8281C277.734 53.8456 276.929 53.8892 276.049 53.8877C275.284 53.8882 274.639 53.9355 274.171 54.0254C273.103 54.1739 271.802 54.2613 270.324 54.2835C268.37 54.3221 266.522 54.4097 264.534 54.3905C264.563 54.4987 264.441 54.5909 264.181 54.6573C263.921 54.7238 263.533 54.7623 263.056 54.7688C260.93 54.8101 259.003 54.9177 256.849 54.9496L256.273 54.9499L249.831 55.012C248.096 55.024 246.424 55.0438 244.654 55.0575C243.991 54.9754 243.974 55.1167 243.516 55.0898C243.388 55.0202 243.237 54.9895 243.011 55.0272L242.961 55.1107L235.61 55.2214C232.732 55.3023 229.704 55.3266 226.553 55.294C225.805 55.3022 225.108 55.3299 224.471 55.3765C223.88 55.3936 223.265 55.4011 222.628 55.3991C221.766 55.3781 220.924 55.3675 220.105 55.3673C217.951 55.3992 215.691 55.382 213.332 55.3586C210.974 55.3353 209.187 55.3768 207.088 55.3736C205.667 55.3707 204.252 55.3567 202.78 55.3237C202.078 55.3084 201.212 55.2251 200.485 55.1947C199.757 55.1643 199.52 55.1647 199.423 55.2126C199.107 55.3465 198.311 55.2599 197.675 55.2468C196.434 55.2245 196.258 55.1788 195.921 54.8325L197.443 54.7225C197.817 54.687 198.286 54.6807 198.806 54.7044C199.326 54.728 199.88 54.7807 200.413 54.8574C200.623 54.8903 200.843 54.9163 201.059 54.9338C201.276 54.9514 201.485 54.9603 201.674 54.9598C203.21 54.9411 204.725 54.9017 206.201 54.8695L206.417 54.8485L206.43 54.5396C206.235 54.5093 206.033 54.4842 205.831 54.4653L198.426 54.2649C196.727 54.2157 194.963 54.1047 193.295 54.0594C191.628 54.0142 190.729 53.9865 189.435 53.9397C188.889 53.913 188.333 53.878 187.769 53.8349C187.802 53.8051 187.821 53.7735 187.825 53.7403C187.855 53.6902 187.895 53.6234 187.655 53.5699C187.394 53.4943 187.045 53.4298 186.678 53.3892C186.333 53.3623 185.999 53.3471 185.688 53.3442C184.186 53.3183 182.471 53.1552 180.908 52.8896L180.363 53.0668C178.016 52.9672 175.634 52.8693 173.182 52.7747C172.691 52.7489 172.176 52.6994 171.675 52.6299C171.139 52.5634 170.645 52.4246 170.08 52.3487C169.522 52.294 168.967 52.2514 168.427 52.2216C168.573 52.1759 168.766 52.1395 168.999 52.1133C169.229 52.1042 169.396 52.0756 169.477 52.032C169.558 51.9883 169.548 51.9317 169.448 51.8703C169.274 51.7651 169.197 51.666 169.577 51.6534C169.928 51.6293 170.18 51.5774 170.301 51.5036C170.423 51.4298 170.41 51.3372 170.264 51.2368C170.2 51.1781 170.155 51.1207 170.129 51.0648V51.0648L169.971 51.0453C169.451 50.8374 168.411 50.7624 167.664 50.5923C167.312 50.543 166.947 50.5147 166.628 50.5117C165.802 50.4752 164.998 50.4592 164.144 50.4132C163.737 50.392 163.31 50.3534 162.89 50.2996C162.29 50.2253 162.227 50.2175 161.879 49.9475C162.42 49.9522 162.849 49.9118 163.093 49.8332C163.337 49.7547 163.382 49.6427 163.219 49.5162C162.773 49.24 162.301 48.9487 160.283 48.7525C160.941 48.7428 161.575 48.7236 162.181 48.6949C162.357 48.6887 162.489 48.6684 162.559 48.6367C162.629 48.605 162.634 48.5635 162.573 48.5176C162.511 48.4717 162.387 48.4236 162.216 48.3799C162.046 48.3361 161.837 48.2988 161.618 48.2728C160.552 48.1165 159.441 48.012 158.408 47.9708C157.538 47.9526 156.752 47.9628 155.736 47.9624L154.536 47.8138C154.556 47.7804 154.38 47.7347 154.424 47.7163C154.729 47.5451 155.066 47.3777 155.412 47.1937C154.859 47.0943 154.38 46.9743 154.029 46.8475C153.679 46.7207 153.471 46.5921 153.431 46.4765C153.401 46.4417 153.409 46.4099 153.454 46.3835C153.499 46.3571 153.58 46.3366 153.691 46.3236C154.007 46.3013 154.251 46.2586 154.403 46.1988C154.556 46.1391 154.614 46.0639 154.573 45.979L153.64 45.6664C150.831 45.4433 148.073 45.2839 145.416 45.1912L143.017 45.1211C142.728 45.0375 142.818 45.0008 143.09 44.9987C143.362 44.9966 144.128 45.0198 144.663 45.0323C145.125 45.0487 145.535 45.0379 145.854 45.001C146.172 44.9641 146.389 44.9023 146.482 44.8216L145.677 44.4651C145.716 44.3983 145.772 44.3038 146.209 44.3101C146.508 44.3023 146.727 44.2687 146.833 44.2147C146.939 44.1606 146.925 44.0892 146.792 44.0121C146.772 43.9562 146.802 43.9054 146.881 43.8618C147.527 43.8582 148.17 43.8602 148.756 43.8432C149.029 43.8376 149.26 43.8169 149.432 43.7826C149.604 43.7483 149.715 43.7012 149.755 43.6445C149.776 43.5891 149.725 43.526 149.605 43.4603C149.485 43.3946 149.3 43.3281 149.064 43.2663C148.146 43.1897 147.305 43.1887 146.728 43.2635C146.522 43.3221 146.191 43.3542 145.779 43.3554C145.367 43.3566 144.893 43.3269 144.419 43.2703C143.877 43.205 143.336 43.1763 142.894 43.1893C142.451 43.2024 142.136 43.2564 142.005 43.3415C141.449 43.3084 140.955 43.2831 140.468 43.2467C139.894 43.2008 139.352 43.1873 138.899 43.2076C138.175 43.222 137.394 43.2136 136.576 43.1826C134.215 43.1053 131.852 43.0335 129.567 43.0013C128.962 42.9921 128.439 43.0169 127.841 42.9966C127.243 42.9763 126.77 43.0312 126.022 42.9207C125.88 42.9035 125.737 42.8925 125.604 42.8884C125.471 42.8844 125.352 42.8875 125.257 42.8975C123.944 42.9849 122.404 42.9973 120.728 42.9338C118.433 42.9183 116.053 42.8744 113.755 42.8644C113.08 42.873 112.443 42.8959 111.85 42.9331C111.398 42.9555 110.926 42.9707 110.434 42.9786C110.057 42.9857 109.696 42.9649 109.76 43.0863C109.823 43.2076 109.259 43.1317 108.933 43.1093C107.814 43.0504 106.671 42.9708 105.516 42.8712C104.378 42.763 103.262 42.7 102.237 42.686C101.496 42.6779 100.732 42.7087 99.7801 42.543C99.8164 42.4818 99.8526 42.4206 100.06 42.3567C99.2833 42.1809 98.3972 42.0296 97.4749 41.9153C96.5526 41.8011 95.6207 41.7272 94.7561 41.6998L93.564 41.367C93.2704 41.3279 92.9708 41.2995 92.6832 41.2834C92.3956 41.2673 92.1262 41.2638 91.8912 41.2733C91.7096 41.2781 91.4884 41.2658 91.268 41.2385C91.0476 41.2112 90.8429 41.1708 90.6915 41.1247C90.4651 41.0661 90.1887 41.0156 89.8966 40.9794C89.6046 40.9432 89.3101 40.9231 89.0499 40.9214C88.2308 40.8852 87.3564 40.8016 86.5163 40.6793C86.2983 40.6075 86.1617 40.5334 86.1233 40.466C86.0849 40.3987 86.1466 40.341 86.3005 40.3002C86.5487 40.2281 86.688 40.1362 86.7101 40.0301C86.7322 39.9241 86.6366 39.806 86.429 39.6831C86.3227 39.6076 86.2872 39.5362 86.3246 39.4731C86.362 39.41 86.4715 39.3565 86.6466 39.3159C87.3001 39.1281 87.1253 39.0228 86.0561 38.7113C85.8824 38.6593 85.673 38.6108 85.4413 38.5687C85.2096 38.5266 84.9605 38.492 84.7099 38.4669C84.1219 38.4161 83.5419 38.3783 82.9806 38.3542C82.6649 38.3151 82.3412 38.3467 81.9774 38.3315C80.1586 38.2555 79.8924 38.133 79.3033 37.8689L78.8741 37.6784C78.0779 37.5241 77.2072 37.3959 76.3246 37.3031C75.442 37.2103 74.5696 37.1553 73.7701 37.1418C73.4524 37.1408 73.0871 37.1145 72.7302 37.0668C71.5688 36.921 70.3926 36.8201 69.2796 36.7708C68.586 36.743 67.8384 36.6712 67.1265 36.564C66.4146 36.4568 65.7687 36.3186 65.2664 36.1663C64.8152 36.029 64.2249 35.9058 63.5776 35.8138C62.8199 35.7199 62.7498 35.6097 63.1729 35.5248C63.596 35.4398 64.3046 35.3305 64.9337 35.2412C65.1525 35.2109 65.2881 35.1615 65.3254 35.0986C65.3627 35.0357 65.3001 34.9618 65.1447 34.8851C65.0449 34.7539 65.0276 34.6293 65.0932 34.5145C65.1283 34.4667 65.1041 34.412 65.0222 34.354C64.9404 34.296 64.8028 34.236 64.6187 34.1781C64.4346 34.1202 64.2084 34.0658 63.9552 34.0184C63.702 33.9711 63.4277 33.9319 63.1509 33.9036C61.9828 33.759 60.8462 33.6182 59.6551 33.5125C59.1559 33.4627 58.6572 33.4009 58.1713 33.3287C57.1766 33.1502 56.1124 33.0022 55.0406 32.8932C54.5319 32.8445 54.0346 32.7593 53.6563 32.6561C52.463 32.378 51.3634 32.0856 50.3776 31.7842C50.1399 31.6907 49.829 31.5995 49.4643 31.5163C49.0996 31.4331 48.6889 31.3597 48.2581 31.3007C47.9108 31.2577 47.6281 31.163 47.3605 31.0999C47.166 30.954 47.1452 30.819 47.3001 30.7077C47.455 30.5963 47.7806 30.5121 48.2462 30.4632C48.6877 30.4044 49.1008 30.3361 49.4825 30.2639C49.9426 30.2056 50.4895 30.1705 51.1029 30.1601C51.8295 30.1287 52.3667 30.0392 52.6446 29.9031C50.6557 29.6568 48.7643 29.3031 47.0209 29.3858L45.6963 29.162C45.7491 29.073 45.7952 28.9951 45.8381 28.9227C46.1531 28.7911 46.2515 28.6251 46.125 28.4387C46.0206 28.3486 46.03 28.2665 46.1522 28.2009C46.2744 28.1353 46.5051 28.0884 46.8209 28.0651C48.6914 27.825 50.8546 27.6629 52.6088 27.3905C53.1588 27.3393 53.8026 27.3161 54.5133 27.3218C55.2007 27.3054 55.172 27.1824 54.3808 27.0306C53.9368 26.9514 53.4842 26.8754 53.0247 26.803C50.9986 26.7909 50.1732 27.1545 47.8611 27.0533L46.7895 26.5742C46.4997 26.5668 46.2184 26.5638 45.9474 26.5654L42.0706 26.7601C41.7477 26.7699 41.4963 26.8031 41.3451 26.8562C41.1938 26.9093 41.1487 26.9799 41.215 27.0602C41.2412 27.1584 41.1878 27.2485 41.0567 27.3273C40.9721 27.3824 41.0262 27.4556 41.2071 27.531C41.6147 27.7009 41.0917 27.7258 40.7614 27.7685C40.677 27.7726 40.5796 27.7722 40.475 27.7671C40.3704 27.7621 40.2605 27.7526 40.1519 27.7391C40.0432 27.7257 39.9379 27.7085 39.842 27.6887C39.7461 27.6689 39.6616 27.6469 39.5933 27.6238C39.0114 27.4621 38.5024 27.2916 37.9304 27.1132C38.3365 26.9426 37.8586 26.6624 38.4924 26.508C38.5632 26.4772 38.5916 26.4396 38.5757 26.3976C38.5598 26.3556 38.5 26.31 38.3999 26.2637C38.1419 26.1441 38.019 26.0276 38.0436 25.9258C38.0683 25.824 38.2396 25.7405 38.5403 25.6839L38.5765 25.6227C37.7835 25.4169 37.9936 25.234 37.6821 25.0162L36.9192 24.874C35.0212 24.5314 35.0179 24.537 33.3839 24.5496C33.0545 24.4192 33.473 24.3994 33.7868 24.3845L36.415 24.2382C38.1334 24.1405 39.9018 24.0728 41.8214 24.0359C43.741 23.9989 45.881 23.8758 47.8652 23.7871C47.9655 23.7802 48.0422 23.7667 48.089 23.7475C48.1357 23.7284 48.151 23.7042 48.1337 23.6771C48.0549 23.6477 47.9516 23.6194 47.8316 23.5942C47.7117 23.569 47.578 23.5475 47.4406 23.5315C46.8091 23.4533 46.1613 23.4029 45.4884 23.3375L44.2341 23.2239L43.8482 23.0746C43.597 22.9838 43.4254 22.873 43.0914 22.8077C42.816 22.759 42.5172 22.7221 42.2259 22.7007C41.9346 22.6793 41.6615 22.6743 41.4352 22.6862C40.8076 22.7159 40.2398 22.7591 39.6404 22.7983C39.0411 22.8376 38.7108 22.8803 38.1911 22.8995C37.1352 22.9083 36.1147 22.9314 35.1341 22.9688C34.3081 23.0573 33.5442 23.1621 32.847 23.2827C32.4121 23.3304 32.0054 23.3875 31.2628 23.3254C30.9105 23.2691 30.6067 23.1951 30.4051 23.1165C30.2035 23.038 30.1172 22.96 30.1616 22.8964C30.2015 22.8465 30.3143 22.807 30.4894 22.7817C30.6645 22.7563 30.8961 22.746 31.1624 22.7516C31.9078 22.7424 32.5971 22.7115 33.2163 22.6596C34.0783 22.5655 35.1276 22.5249 36.303 22.5402C36.7016 22.5538 36.9688 22.5033 37.3175 22.4867C37.6661 22.4702 37.9615 22.4291 38.3503 22.4594C39.5579 22.5373 40.137 22.4179 40.8607 22.3403C41.1057 22.3059 41.2575 22.2503 41.2994 22.1797C41.3413 22.109 41.2716 22.026 41.0981 21.9397C40.7641 21.768 40.3555 21.5953 39.8787 21.4244C39.6333 21.3404 39.3188 21.2606 38.9601 21.1913C38.6014 21.122 38.208 21.0651 37.8109 21.025C37.5733 20.9198 37.4466 20.8164 37.4421 20.7241C37.4376 20.6318 37.5557 20.5535 37.7855 20.4963C38.3711 20.3658 38.8903 20.233 40.2026 20.306C40.8196 20.3338 41.4002 20.3392 41.9214 20.3218C43.0776 20.298 44.4112 20.3501 45.7965 20.4733C46.155 20.5048 46.5073 20.5264 46.8431 20.5372C49.2381 20.6129 51.52 20.6507 53.8086 20.6773C55.0209 20.6901 56.2432 20.6862 57.5088 20.7235C60.4768 20.8045 63.1786 20.7629 66.0434 20.7892C67.5438 20.8028 68.8868 20.7483 70.0019 20.6285C70.219 20.5884 70.4055 20.5416 70.5592 20.4886C69.8202 20.3495 69.0086 20.2393 68.2019 20.1687C67.3953 20.0981 66.6207 20.0693 65.9524 20.0852C65.585 20.1241 65.1101 20.1313 64.5807 20.1058C64.0513 20.0803 63.4882 20.0232 62.9542 19.9408V19.9408L64.5068 19.8942C65.5363 19.8724 66.5908 19.8657 67.592 19.8344C69.1828 19.7806 70.657 19.6945 72.3043 19.6596C73.6342 19.6275 74.8243 19.5456 75.8372 19.4164C76.5689 19.3221 77.4047 19.2552 78.3274 19.2172C78.9833 19.1969 78.9833 19.1969 79.4026 19.004C79.0699 18.8791 78.6398 18.8617 78.2345 18.8593C75.8051 18.7808 73.4932 18.767 71.3458 18.8183C70.2623 18.8228 69.3011 18.8757 68.5083 18.9745C68.3142 19.0161 67.8176 18.9964 67.4189 18.9829C66.1693 18.9623 64.975 18.9683 63.8502 19.0007C62.2952 19.0548 60.5633 19.042 58.7218 18.9627C58.3726 18.8657 58.7745 18.8737 58.7943 18.8403C60.2206 18.7781 61.6186 18.7064 63.0731 18.6536C63.4707 18.6348 63.8958 18.6255 64.3434 18.6258C66.0147 18.6586 67.4073 18.5679 68.3263 18.3667C68.3725 18.2888 68.977 18.298 69.2442 18.2475C69.3756 18.2037 69.4631 18.1522 69.5042 18.0945C69.115 17.9508 68.6749 17.95 68.3361 17.9499C67.353 17.9659 66.4073 17.9963 65.5034 18.0409C64.6632 18.0834 63.7331 18.0948 62.7384 18.0747C62.0043 18.0555 61.3767 18.0852 60.636 18.0771C60.2343 18.06 59.8183 18.0325 59.3968 17.9953C59.8662 17.8951 60.5042 17.8335 61.266 17.8147C61.8437 17.7549 62.566 17.7369 62.6583 17.5811C62.3855 17.4696 62.0815 17.4678 61.8374 17.4794C61.3294 17.479 60.8387 17.486 60.3678 17.5004C59.3695 17.5321 58.2885 17.5325 57.1477 17.5017C56.547 17.4902 55.977 17.4937 55.4472 17.5121C54.2466 17.5366 53.096 17.5911 51.9968 17.6162C49.745 17.6419 47.6912 17.7339 45.5275 17.7825C45.0459 17.7945 44.6143 17.8366 43.9796 17.7639C43.3449 17.6913 43.3166 17.6818 43.2417 17.6367C43.0641 17.5614 43.0103 17.4885 43.0914 17.433C43.2173 17.3811 43.4625 17.3522 43.7835 17.3515C45.7177 17.269 47.5522 17.1531 49.2756 17.0045C50.0341 16.9748 50.6986 16.9141 51.2461 16.8245C51.6802 16.7629 52.1953 16.7221 52.775 16.7034C53.6182 16.6588 54.4972 16.6261 55.4085 16.6055C55.8325 16.5944 56.193 16.5614 56.4689 16.5084C56.7447 16.4554 56.9303 16.3835 57.0146 16.2968L55.8975 16.0092C55.722 15.9958 55.5478 15.9842 55.3759 15.9744L46.1034 16.1816L45.1851 16.1873C44.1786 16.1702 43.9327 16.1278 42.978 15.7945C45.1568 15.7161 46.8695 15.4876 47.9456 15.1318C47.687 15.0935 47.4218 15.0607 47.1563 15.0341C45.4152 14.9499 43.7692 14.9275 42.2819 14.9678C41.3984 14.9719 40.49 14.9609 39.5783 14.9554C39.8449 14.7914 40.8664 14.8403 41.5322 14.8033C43.123 14.7454 44.5297 14.6259 45.7073 14.4485C46.1134 14.3793 46.6213 14.3351 47.208 14.3178C47.7951 14.3119 48.2855 14.27 48.6366 14.1959C48.9876 14.1218 49.1887 14.0176 49.2222 13.8925C49.2775 13.7792 49.3967 13.6739 49.5779 13.5782C49.2573 13.4425 48.7481 13.3124 48.1459 13.2126C47.5437 13.1127 46.89 13.0498 46.3073 13.0358C45.0636 12.9799 43.7735 12.8884 42.47 12.7636C41.8207 12.7006 41.1839 12.6645 40.6012 12.6575C40.0873 12.6522 39.5032 12.6067 38.938 12.5281C38.3727 12.4495 37.8574 12.342 37.4706 12.222C36.9485 12.0738 36.4612 11.9238 35.974 11.7739C35.4867 11.624 34.9213 11.4345 34.3526 11.2506C33.8511 11.2218 33.3628 11.2034 32.8943 11.1954C32.5297 11.2021 32.1044 11.1821 31.6684 11.1376C31.2324 11.0931 30.8039 11.0261 30.4336 10.9444V10.9444C30.6508 10.8638 30.8963 10.7927 31.155 10.6993C30.7999 10.576 30.5425 10.4503 30.3984 10.3297C30.2543 10.2092 30.2264 10.0964 30.3166 9.99828C30.3694 9.90926 29.9834 9.75993 29.8501 9.64189C29.6784 9.54013 29.6461 9.44517 29.7575 9.36945C29.8689 9.29373 30.1188 9.24079 30.4744 9.21757C30.9154 9.17472 31.2743 9.11019 31.5364 9.02662C31.6231 9.00493 31.6672 8.97522 31.6647 8.94021C31.6623 8.9052 31.6133 8.86601 31.5222 8.82623C31.4312 8.78644 31.301 8.74732 31.1436 8.71245C30.9862 8.67758 30.8067 8.64808 30.6213 8.62663C30.0534 8.56583 29.4894 8.52642 28.9617 8.51067C28.0526 8.48168 27.1823 8.46348 26.3509 8.45605C25.4313 8.44487 24.4082 8.37585 23.3856 8.25601C22.4701 8.14262 21.6493 8.04095 21.2016 7.82427C20.7539 7.60758 20.0382 7.61449 19.4878 7.45674C19.797 7.31454 20.3465 7.21575 21.0809 7.17032C21.5614 7.1541 21.9626 7.11154 22.2586 7.04535C22.5546 6.97917 22.7389 6.89083 22.7997 6.78601L21.1288 6.34615C19.7943 6.13907 19.056 6.29845 17.6142 6.21543L19.0998 6.05306C19.1297 6.03701 19.1408 6.01816 19.1328 5.99742C18.9885 5.66902 18.7591 5.59879 17.2404 5.41667L16.388 5.3111L15.039 5.18582C14.8229 5.11851 14.6735 5.04833 14.6056 4.98228C14.5377 4.91623 14.5537 4.85663 14.6521 4.80945C14.8497 4.73009 14.9098 4.62869 14.8268 4.51458C14.696 4.43898 14.6852 4.3693 14.7963 4.31761C14.9074 4.26592 15.1334 4.23548 15.4351 4.2316C15.6759 4.22559 15.6937 4.13822 15.8247 4.08875C15.9549 4.02057 16.1776 3.96825 16.4778 3.93535C16.778 3.90246 17.1485 3.88974 17.5642 3.8981C18.79 3.90493 19.9415 3.87934 20.9982 3.82177L20.8088 3.79831C21.9103 3.84885 22.9401 3.85497 23.8479 3.8164C24.7578 3.76785 25.9254 3.79899 26.8918 3.76939C27.6786 3.77618 28.2775 3.70898 28.5617 3.58205C28.8368 3.46086 29.8367 3.48914 30.6023 3.51231C31.0559 3.5273 31.4943 3.53365 31.9128 3.53129C32.4745 3.50386 33.1768 3.52972 33.9026 3.60455C34.1204 3.62755 34.3349 3.63972 34.5255 3.6399C36.3707 3.67135 38.2125 3.70836 40.0327 3.72478C40.4528 3.71533 40.9455 3.73698 41.4528 3.7872C41.6661 3.809 41.8736 3.81804 42.0476 3.81308C44.9237 3.7632 48.1692 3.89046 50.9887 3.82164C51.3305 3.80538 51.7088 3.80201 52.113 3.81159C53.0213 3.85202 53.8101 3.826 54.3596 3.73749C54.6561 3.69041 55.0362 3.66447 55.4756 3.66131C55.9151 3.65816 56.4043 3.67787 56.912 3.71918C57.7569 3.77388 58.5378 3.77981 59.1722 3.73635C60.4093 3.6962 61.7102 3.67969 63.0647 3.68695C63.4798 3.69398 63.8446 3.67837 64.131 3.64135C64.4174 3.60432 64.6176 3.54687 64.7161 3.47344C64.3835 3.34863 64.0197 3.33345 63.6744 3.34442C62.3357 3.31598 61.0004 3.28197 59.6867 3.26857C58.5109 3.23029 57.3827 3.21858 56.3187 3.23363C55.7903 3.25061 55.1311 3.2119 54.4848 3.12594C53.6927 3.01708 52.8769 2.963 52.2023 2.97463C51.7022 2.97752 51.1743 2.96814 50.6262 2.94664C50.2754 2.9207 49.9159 2.87617 49.5844 2.81761C49.4529 2.79218 49.3097 2.77079 49.1641 2.75482C49.0185 2.73885 48.8737 2.72866 48.7388 2.72488C48.6039 2.7211 48.4819 2.72382 48.3807 2.73287C48.2795 2.74192 48.2014 2.7571 48.1511 2.77744C47.6437 2.9475 46.509 2.86072 45.5374 2.84191C44.0814 2.55408 42.9977 2.72444 41.6369 2.56187C41.5293 2.55109 41.4233 2.54456 41.3253 2.5427C41.2274 2.54084 41.1396 2.54368 41.0672 2.55103C38.4338 2.64888 35.3645 2.56733 32.5996 2.60112C32.2947 2.60606 31.9407 2.58913 31.5781 2.55224C29.2078 2.3081 26.9289 2.23878 25.1868 2.35786C24.9749 2.36858 24.7338 2.36904 24.4744 2.35921C23.2834 2.26218 22.1444 2.22349 21.1525 2.24638C19.5981 2.23899 18.1035 2.24498 16.5241 2.22255C15.4354 2.19064 14.4802 2.22474 13.7544 2.32144C13.7314 2.36039 13.2479 2.31842 12.8775 2.31436C12.6645 2.21631 12.4799 2.12776 12.2603 2.04084C12.064 1.93331 11.7699 1.82449 11.3982 1.72178C11.0264 1.61906 10.5856 1.52485 10.1055 1.4455C9.28466 1.34384 9.20257 1.19632 9.77693 1.14204C11.2574 0.96248 13.1189 0.888987 15.2248 0.926957C16.9851 0.929991 18.7771 0.936944 20.5624 0.955016C21.6037 0.97052 22.7015 1.00496 23.7146 1.01099C24.0564 1.02424 24.4075 1.04376 24.7644 1.06935C25.2022 1.10646 25.6273 1.12667 26.0168 1.12892C27.2675 1.09767 28.6632 1.12489 30.1374 1.20928C30.6774 1.22768 31.1959 1.23388 31.6852 1.2278C32.8428 1.20489 34.0978 1.22175 35.417 1.27792C36.2369 1.3096 37.0318 1.32617 37.7937 1.32744C38.0628 1.3309 38.2819 1.30429 38.541 1.32444C40.8221 1.53529 42.4372 1.383 44.4902 1.46408C45.488 1.48668 46.4413 1.48675 47.3366 1.46427C49.084 1.46535 50.88 1.48847 52.7176 1.53352C55.1475 1.60754 57.3993 1.58186 59.7194 1.61242C60.1774 1.61884 60.6197 1.61775 61.043 1.60914C63.102 1.55226 65.3383 1.56432 67.6976 1.64503C68.2333 1.65669 68.7144 1.64243 69.1108 1.60316C69.5073 1.56389 69.8105 1.50045 70.0016 1.4168C70.0824 1.35939 70.03 1.28483 69.8545 1.20749C69.5633 1.10872 69.2345 1.01195 68.8735 0.918772L55.741 0.606096C55.1894 0.589768 54.6515 0.580978 54.13 0.579763C52.5963 0.577045 51.0153 0.55272 49.3951 0.50691C47.794 0.46388 46.2645 0.471519 44.7133 0.458564C44.2564 0.454224 43.7874 0.443984 43.3083 0.427875C40.0696 0.300372 36.9115 0.222494 33.8562 0.194802C32.5708 0.190872 31.1822 0.132356 29.8719 0.113389C28.5615 0.0944227 26.7695 0.0874782 25.2151 0.0800861L20.4025 0.0812212C19.4559 0.0774474 18.5342 0.088707 17.6159 0.0944068C16.5014 -0.312355 16.1174 -0.407697 14.6303 -0.585905C14.1216 -0.651642 13.6041 -0.690872 13.1385 -0.699C11.6623 -0.666844 9.81006 -0.8007 8.41017 -0.782978C7.56546 -0.791719 6.84868 -0.746532 6.33322 -0.652042C5.88576 -0.577884 5.37409 -0.519206 4.8061 -0.476892C3.25018 -0.824867 3.11306 -1.05087 4.28347 -1.13881C4.60057 -1.15926 5.03736 -1.15294 5.26634 -1.19624C5.39773 -1.22261 5.57722 -1.23769 5.79051 -1.2403C6.0038 -1.2429 6.24498 -1.23297 6.49515 -1.21126C7.28469 -1.15432 8.02472 -1.14092 8.64098 -1.17243C9.22095 -1.21413 9.93187 -1.21246 10.7052 -1.16759C11.2735 -1.09721 11.7729 -1.19659 12.2644 -1.2253C12.7558 -1.25401 13.1591 -1.30559 13.9267 -1.22844C14.0672 -1.21308 14.2068 -1.20386 14.3346 -1.20148C14.4624 -1.19911 14.5752 -1.20364 14.6641 -1.21474C15.4885 -1.26443 16.4723 -1.25921 17.5355 -1.19951C19.1663 -1.14076 20.6963 -1.13856 22.0726 -1.19298C22.8964 -1.24059 23.5988 -1.32503 24.1523 -1.443C24.3032 -1.48246 24.5272 -1.50612 24.803 -1.51171C26.1877 -1.4871 27.6913 -1.39446 29.2167 -1.23978C29.7913 -1.1778 30.3653 -1.12877 30.9262 -1.09374C32.079 -1.01593 33.194 -0.972328 34.2381 -0.964226C35.7554 -0.962941 37.3351 -0.933002 38.9632 -0.874681C39.968 -0.842208 40.9362 -0.830222 41.8563 -0.838855C42.802 -0.842925 43.8117 -0.818154 44.8625 -0.765119C45.9075 -0.721901 46.8285 -0.746803 47.5143 -0.836809C47.7401 -0.88531 47.922 -0.942905 48.0566 -1.00852C46.5265 -1.22202 44.944 -1.33053 43.6278 -1.31218C43.1279 -1.32633 42.7128 -1.31205 42.186 -1.39521L42.1695 -1.36739C42.0647 -1.34934 41.9065 -1.34508 41.7252 -1.35543C41.5438 -1.36578 41.352 -1.39 41.1862 -1.42349V-1.42349C41.2488 -1.5292 41.3082 -1.62934 41.351 -1.70167C42.3539 -1.68891 43.3276 -1.68994 44.2672 -1.70478C45.0593 -1.72612 46.1345 -1.5392 46.8201 -1.60956C48.1573 -1.52157 49.0088 -1.64306 50.2079 -1.608C51.4071 -1.57295 52.7279 -1.45714 53.927 -1.42209C54.9734 -1.40285 55.9895 -1.39867 56.9695 -1.40956C57.3077 -1.42485 57.6977 -1.42127 58.1154 -1.39902C58.7026 -1.35717 59.2488 -1.35015 59.6912 -1.37879C60.1337 -1.40742 60.4547 -1.47055 60.6173 -1.56093C60.4642 -1.64559 60.2578 -1.75475 60.0199 -1.86783C60.4576 -1.96075 61.1225 -1.99987 61.9158 -1.97938L63.0368 -1.98387C63.3339 -1.98142 63.5609 -2.00654 63.6711 -2.05403C63.7812 -2.10153 63.766 -2.16776 63.6286 -2.23903C61.503 -2.59785 61.4248 -2.6374 59.8647 -2.40661L57.7933 -2.51385L57.8282 -2.5155ZM85.8451 -1.52986L85.6873 -1.54941L85.8451 -1.52986ZM343.978 36.6454L343.942 36.7066L343.981 36.6399L344.328 36.6829L344.351 36.6439L343.978 36.6454ZM293.557 9.82146C293.067 9.75469 292.571 9.69331 292.074 9.63768C291.943 9.62906 291.822 9.62711 291.718 9.632C291.615 9.6369 291.534 9.64849 291.481 9.66579C291.441 9.73255 291.719 9.77887 291.971 9.81015C292.29 9.85226 292.615 9.87901 292.914 9.88766C293.213 9.8963 293.474 9.88654 293.671 9.85935L293.956 9.83499L293.557 9.82146ZM40.7375 26.0933C41.0606 26.1046 41.3671 26.1064 41.6493 26.0988C42.9012 26.0448 44.0998 25.9663 45.3833 25.9163C47.0028 25.7892 48.8637 25.7375 50.8962 25.763C51.6902 25.7755 52.3611 25.7343 52.8304 25.6442C53.1114 25.5959 53.474 25.5677 53.8962 25.5613L59.2696 25.4146C59.6017 25.3841 59.8889 25.3415 60.1243 25.2875C59.6507 25.2289 59.3351 25.1898 59.1456 25.1663C58.7526 25.1597 58.4148 25.1776 58.1661 25.2182C57.8989 25.2869 57.4472 25.3141 56.9009 25.2944C56.3493 25.2781 55.8114 25.2693 55.29 25.2681C54.3052 25.2715 53.3137 25.2861 52.3257 25.2951C51.9412 25.4863 50.8066 25.3996 49.835 25.3807L49.0844 25.3893C46.6308 25.4884 44.2872 25.6249 42.0647 25.7979C41.6352 25.8272 41.2652 25.8738 40.966 25.9365C40.8533 25.9854 40.8172 26.0463 40.8605 26.1146L40.7027 26.095L40.7375 26.0933ZM150.301 44.381C150.897 44.394 151.516 44.4207 152.152 44.4608C152.641 44.5018 153.119 44.5266 153.565 44.5344C156.068 44.5773 158.676 44.6763 161.354 44.8301C161.704 44.8534 162.04 44.8649 162.35 44.864L164.542 44.8249C165.233 44.803 165.246 44.7807 164.743 44.4855C164.326 44.4283 163.904 44.376 163.48 44.3291C163.228 44.2979 162.817 44.247 162.721 44.2949C162.136 44.4254 161.068 44.3408 160.169 44.3132C157.568 44.2418 154.885 44.1365 152.26 44.0502C151.704 44.0291 151.167 44.0184 150.652 44.0183C150.332 44.0139 150.041 44.0222 149.79 44.0429C149.717 44.0451 149.655 44.0512 149.61 44.0611C149.565 44.0709 149.536 44.0841 149.527 44.0999C149.517 44.1157 149.527 44.1337 149.556 44.1526C149.584 44.1716 149.63 44.1911 149.691 44.2098C149.906 44.2755 150.154 44.3385 150.428 44.3966L150.301 44.381ZM169.355 1.53923L171.917 1.50424C172.224 1.50048 172.485 1.46109 172.814 1.47794C174.568 1.53133 176.193 1.51646 177.618 1.43396C178.103 1.40029 178.671 1.39356 179.29 1.41413C181.186 1.4751 182.974 1.47761 184.606 1.42158C185.661 1.41034 186.648 1.37258 187.553 1.30886C187.623 1.29407 187.666 1.27398 187.681 1.24998C187.695 1.22598 187.68 1.19862 187.636 1.16977C187.624 1.15154 187.593 1.13194 187.545 1.1123C187.496 1.09267 187.432 1.07346 187.355 1.05603C187.278 1.03859 187.192 1.02333 187.101 1.01129C187.01 0.999256 186.918 0.990724 186.829 0.986298C185.686 0.900046 184.601 0.869997 183.662 0.898593C182.792 0.932807 181.855 0.942818 180.866 0.92847C179.919 0.924697 179.277 1.03626 178.107 0.951132C177.613 0.923101 177.176 0.932329 176.872 0.977273C176.259 1.05177 175.404 1.05591 174.459 0.988966C173.893 0.955086 173.353 0.940556 172.858 0.945933C171.657 0.970424 170.51 1.01943 169.398 1.06677C169.047 1.07773 168.671 1.07924 168.277 1.07127L162.706 0.978559C161.368 0.950119 160.032 0.916115 158.719 0.902712C157.644 0.873609 156.644 0.882724 155.754 0.929734C154.805 0.979145 153.771 0.999204 152.669 0.989534C150.959 1.01657 149.258 1.02692 147.396 1.02328C146.209 1.02552 144.993 1.01828 143.753 0.99601C143.125 0.967344 142.592 0.99069 142.257 1.06155C142.053 1.11989 141.573 1.07236 141.174 1.05882C139.048 0.92833 137.054 0.89741 135.331 0.968217C135.111 0.979755 134.87 0.983932 134.612 0.980676C132.953 0.978245 131.234 0.962429 129.642 0.962254C129.222 0.967755 128.828 0.982851 128.463 1.00735C128.502 1.04732 128.613 1.09064 128.774 1.12832C128.935 1.16601 129.132 1.19518 129.326 1.20976C130.832 1.32142 132.286 1.38041 133.628 1.38425C135.86 1.37002 138.199 1.402 140.62 1.47985C142.498 1.55832 144.21 1.5418 145.63 1.43151C146.739 1.34921 148.183 1.38017 149.712 1.51908C150.366 1.58543 151.002 1.61195 151.531 1.59504C152.04 1.57286 152.624 1.57824 153.25 1.61086C154.568 1.6729 155.836 1.70168 157.028 1.69663C158.194 1.6738 159.281 1.61141 160.479 1.59248C161.676 1.57355 163.499 1.5844 164.976 1.55224C166.452 1.52009 167.912 1.51575 169.355 1.53923ZM63.1825 -1.71501C63.3177 -1.54299 63.7965 -1.43592 64.3115 -1.39005C66.0871 -1.18637 67.8425 -1.0997 69.283 -1.14458C70.0611 -1.20718 71.0984 -1.18308 72.1911 -1.07702C73.4635 -0.966768 74.6527 -0.948483 75.5493 -1.02539C75.7689 -1.03883 75.9371 -1.06724 76.0388 -1.10808C76.0586 -1.14146 76.0949 -1.20266 76.1015 -1.21379C76.0073 -1.24201 75.8918 -1.26815 75.7638 -1.29021C75.6359 -1.31227 75.499 -1.32965 75.3636 -1.34101L69.4823 -1.53793L68.4574 -1.58126C66.5854 -1.69479 64.8016 -1.74001 63.1825 -1.71501V-1.71501ZM74.7511 1.00773C75.669 1.28863 75.6722 1.28306 76.1425 1.34727C78.4112 1.614 80.6783 1.75798 82.6741 1.76209C83.1177 1.76127 83.4942 1.73416 83.7716 1.68302C83.9143 1.67609 84.0052 1.65407 84.0243 1.62176C84.0435 1.58945 83.9894 1.54947 83.8738 1.51055L83.1439 1.31266C81.8183 1.22698 80.5117 1.15891 79.2321 1.10884C77.7422 1.04973 76.4218 1.04744 74.8773 1.02336L74.7511 1.00773ZM150.191 43.1371C151.047 43.5237 151.05 43.5182 152.482 43.6179C153.48 43.6885 154.448 43.73 155.357 43.7411C156.468 43.7533 157.607 43.7749 158.715 43.7927C158.986 43.805 159.215 43.7948 159.358 43.764C159.502 43.7332 159.549 43.6841 159.492 43.6261C159.346 43.5632 159.119 43.5023 158.846 43.4534C158.574 43.4045 158.272 43.3704 157.991 43.3566L157.386 43.3474C156.652 43.3282 155.89 43.2995 155.181 43.2952C154.721 43.3112 154.188 43.2989 153.623 43.259C153.059 43.2192 152.479 43.153 151.928 43.0656L150.191 43.1371ZM79.3183 -1.20952C79.5467 -1.14257 79.805 -1.07845 80.0863 -1.01885C81.1757 -0.853681 82.3286 -0.75987 83.3192 -0.75581C83.7875 -0.745578 84.2158 -0.78211 84.6927 -0.729023C85.5479 -0.658084 86.3768 -0.620296 87.1345 -0.617705C87.1345 -0.617705 87.3469 -0.633195 87.4167 -0.636502L87.5617 -0.881298C87.2031 -0.938007 86.829 -0.984336 86.4568 -1.01815C85.2076 -1.08328 83.9802 -1.12781 82.7561 -1.1779C81.5319 -1.22799 81.105 -1.251 80.3045 -1.27251C79.9474 -1.26069 79.6171 -1.23959 79.3183 -1.20952ZM52.268 29.2234L53.9027 29.7245C54.4316 29.768 54.9258 29.7759 55.31 29.747C55.6942 29.718 55.9473 29.6538 56.0309 29.5641C56.1655 29.5221 56.179 29.4599 56.0685 29.3905C55.9579 29.3212 55.732 29.25 55.4381 29.1921C55.1552 29.1233 54.8323 29.0617 54.4892 29.011C54.1462 28.9603 53.7905 28.9216 53.444 28.8973L52.268 29.2234ZM65.8782 26.7287C64.809 26.6438 63.7864 26.609 62.8885 26.6272C62.3228 26.6769 61.5562 26.661 60.746 26.5828C59.2726 26.4269 57.8523 26.3838 56.7848 26.4625C56.7848 26.4625 56.7451 26.5292 56.5642 26.5486C56.3833 26.568 57.1009 26.6151 57.2587 26.6346C58.4165 26.6825 59.5808 26.7192 60.5872 26.7363C61.2121 26.7356 61.873 26.7514 62.5587 26.7834C63.502 26.8328 64.3967 26.8489 65.2077 26.8308C65.2077 26.8308 65.5215 26.8159 65.8749 26.7343L65.8782 26.7287ZM180.059 0.631477C179.548 0.537115 178.995 0.460422 178.439 0.407158C177.884 0.353894 177.341 0.325441 176.852 0.323927C176.478 0.319003 176.175 0.343917 175.992 0.39473C175.808 0.445544 175.754 0.519357 175.839 0.604497C176.218 0.651418 176.723 0.713977 177.007 0.749167C177.992 0.745724 178.832 0.700477 180.059 0.631477ZM275.653 8.58335C275.243 8.50739 274.792 8.44931 274.351 8.41575C273.909 8.38219 273.495 8.3745 273.156 8.39355C272.982 8.40182 273.1 8.48813 273.071 8.53821C273.051 8.54956 273.051 8.56368 273.071 8.57909C273.091 8.5945 273.13 8.61063 273.183 8.62579C273.236 8.64095 273.303 8.65458 273.375 8.66526C273.447 8.67593 273.522 8.68326 273.593 8.68647C274.037 8.7192 274.457 8.72894 274.814 8.71483C275.171 8.70072 275.455 8.6632 275.64 8.60561L275.653 8.58335ZM282.058 9.66925C281.995 9.62443 281.86 9.57771 281.678 9.53766C281.496 9.49761 281.28 9.46692 281.069 9.45121C280.696 9.4491 280.357 9.46153 280.064 9.48803C279.747 9.50847 279.976 9.63825 280.404 9.71525C280.586 9.74615 280.78 9.77026 280.971 9.78565C281.162 9.80104 281.345 9.80729 281.505 9.80391C281.665 9.80052 281.797 9.78759 281.892 9.76615C281.987 9.74471 282.042 9.71534 282.051 9.68038L282.058 9.66925ZM95.9456 -0.732756C94.99 -0.892912 94.2545 -0.852621 93.4454 -0.916991C92.6364 -0.981361 92.4371 -0.988134 92.5455 -0.88513C92.6539 -0.782127 93.2085 -0.803016 93.5557 -0.760006C94.0249 -0.702934 94.497 -0.670163 94.919 -0.66535C95.3411 -0.660536 95.6965 -0.683875 95.9456 -0.732756V-0.732756ZM295.071 26.366C294.564 26.3301 294.069 26.3047 293.591 26.2902C293.528 26.3051 293.488 26.3246 293.475 26.3475C293.461 26.3704 293.474 26.3963 293.512 26.4237C293.512 26.4237 293.836 26.5057 294.025 26.5291C294.723 26.6096 294.757 26.4944 295.071 26.366V26.366ZM366.608 41.2876C366.951 41.3958 367.111 41.4693 367.385 41.5212C367.511 41.5392 367.641 41.5523 367.766 41.5595C367.891 41.5666 368.007 41.5677 368.106 41.5627C368.226 41.5315 368.255 41.4839 368.185 41.4292C368.185 41.4292 367.836 41.3322 367.703 41.3277C367.324 41.3047 366.956 41.2913 366.608 41.2876V41.2876ZM79.6801 -1.64844C78.954 -1.73837 78.2594 -1.8244 77.7567 -1.71945C78.9097 -1.60651 78.9097 -1.6065 79.6801 -1.64844ZM91.4406 -0.621854C90.7074 -0.814186 90.2772 -0.831639 89.9252 -0.809541C89.8504 -0.803974 89.8009 -0.791569 89.7842 -0.774207C89.7675 -0.756846 89.7844 -0.735471 89.8326 -0.713314C89.8807 -0.691158 89.9573 -0.669429 90.0509 -0.651411C90.1445 -0.633393 90.2499 -0.620066 90.3512 -0.613452C90.7335 -0.607916 91.0982 -0.610727 91.4406 -0.621854V-0.621854ZM129.177 -0.540525C129.193 -0.568343 129.213 -0.601723 129.024 -0.625184C128.974 -0.637093 128.916 -0.647335 128.855 -0.654885C128.794 -0.662434 128.732 -0.667021 128.676 -0.668188C128.676 -0.668188 128.657 -0.634806 128.644 -0.612552L129.177 -0.540525ZM155.382 45.6432L154.96 45.6686L155.15 45.6921L155.65 45.7062L155.382 45.6432ZM303.868 9.23518C303.71 9.21563 303.552 9.19608 303.529 9.23502C303.496 9.24106 303.475 9.24976 303.469 9.26041C303.462 9.27106 303.471 9.28333 303.493 9.29622C303.493 9.29622 303.714 9.3236 303.808 9.33533L303.868 9.23518ZM279.284 9.54666C279.18 9.54443 279.087 9.54704 279.009 9.55433C279.009 9.55433 278.989 9.58771 278.989 9.58771L279.305 9.62681L279.284 9.54666ZM65.0444 17.5004C64.9224 17.4801 64.7932 17.4641 64.6656 17.4534L64.5076 17.4339C64.5076 17.4339 64.6773 17.4907 64.772 17.5025C64.8667 17.5142 64.9431 17.4998 65.0444 17.5004Z" fill="#DF6951"/>
</g>
</svg>
