<svg width="349" height="348" viewBox="0 0 349 348" fill="none" xmlns="http://www.w3.org/2000/svg">
<path d="M291.695 286.751C290.762 287.706 289.818 288.654 288.862 289.595L288.16 288.883C287.685 289.351 287.206 289.818 286.725 290.283C286.244 290.748 285.761 291.211 285.277 291.67L285.965 292.396C284.992 293.319 284.012 294.23 283.026 295.13L282.352 294.392C281.369 295.289 280.381 296.175 279.386 297.049L280.046 297.8C279.037 298.687 278.022 299.562 277.001 300.426L276.355 299.662C275.339 300.521 274.317 301.369 273.289 302.205L273.92 302.98C272.879 303.827 271.832 304.662 270.779 305.485L270.163 304.697C269.113 305.518 268.058 306.327 266.997 307.124L267.597 307.923C266.526 308.728 265.449 309.52 264.367 310.3L263.782 309.489C262.7 310.269 261.613 311.038 260.52 311.793L261.089 312.616C259.989 313.377 258.884 314.125 257.774 314.862L257.221 314.028C256.108 314.767 254.99 315.492 253.868 316.205L254.404 317.05C253.276 317.766 252.143 318.47 251.005 319.162L250.486 318.307C249.344 319.001 248.198 319.683 247.048 320.351L247.55 321.216C246.393 321.888 245.232 322.548 244.067 323.194L243.582 322.32C242.415 322.967 241.245 323.601 240.07 324.222L240.537 325.106C239.354 325.732 238.166 326.345 236.974 326.945L236.525 326.052C235.334 326.651 234.141 327.238 232.943 327.81L233.375 328.713C232.166 329.291 230.953 329.856 229.737 330.408L229.324 329.497C228.112 330.047 226.897 330.584 225.678 331.108L226.073 332.026C224.84 332.556 223.605 333.071 222.367 333.574L221.991 332.647C220.758 333.147 219.523 333.633 218.285 334.105L218.642 335.04C217.388 335.518 216.132 335.983 214.873 336.434L214.536 335.493C213.283 335.941 212.029 336.376 210.772 336.797L211.09 337.746C209.818 338.172 208.544 338.584 207.268 338.982L206.97 338.027C205.699 338.424 204.427 338.806 203.153 339.175L203.431 340.135C202.143 340.507 200.853 340.866 199.563 341.209L199.305 340.243C198.019 340.586 196.731 340.914 195.441 341.228L195.678 342.2C194.377 342.517 193.074 342.82 191.77 343.108L191.554 342.132C190.254 342.42 188.953 342.693 187.65 342.951L187.845 343.932C186.532 344.193 185.218 344.44 183.904 344.671L183.73 343.686C182.418 343.918 181.106 344.134 179.793 344.336L179.945 345.325C178.623 345.528 177.3 345.717 175.977 345.891L175.847 344.899C174.525 345.073 173.204 345.232 171.884 345.376L171.992 346.37C170.662 346.515 169.333 346.644 168.004 346.759L167.918 345.763C166.59 345.878 165.263 345.977 163.937 346.062L164.001 347.06C162.666 347.145 161.332 347.215 160 347.269L159.959 346.27C158.627 346.325 157.297 346.364 155.968 346.388L155.986 347.388C154.649 347.412 153.314 347.421 151.98 347.414L151.985 346.414C150.653 346.408 149.322 346.386 147.994 346.348L147.965 347.348C146.629 347.31 145.295 347.256 143.963 347.187L144.015 346.189C142.684 346.12 141.356 346.035 140.031 345.935L139.955 346.932C138.622 346.831 137.292 346.714 135.965 346.582L136.064 345.587C134.739 345.455 133.416 345.307 132.098 345.143L131.974 346.135C130.648 345.97 129.324 345.789 128.004 345.592L128.152 344.603C126.835 344.407 125.522 344.195 124.213 343.966L124.042 344.952C122.724 344.722 121.411 344.476 120.102 344.214L120.298 343.233C118.994 342.972 117.693 342.695 116.398 342.402L116.177 343.377C114.873 343.082 113.573 342.77 112.279 342.443L112.524 341.473C111.235 341.147 109.951 340.804 108.672 340.445L108.402 341.408C107.115 341.047 105.832 340.669 104.556 340.275L104.851 339.32C103.581 338.928 102.316 338.52 101.058 338.095L100.738 339.043C99.4715 338.615 98.2105 338.172 96.9558 337.711L97.3001 336.773C96.053 336.315 94.8121 335.841 93.5779 335.351L93.2088 336.281C91.9662 335.787 90.7302 335.277 89.5011 334.751L89.8948 333.832C88.6744 333.309 87.4609 332.77 86.2546 332.215L85.8364 333.123C84.6221 332.564 83.415 331.989 82.2154 331.397L82.6579 330.5C81.4681 329.913 80.2858 329.309 79.1113 328.69L78.6446 329.574C77.4624 328.95 76.2881 328.31 75.1219 327.653L75.6126 326.782C74.4572 326.131 73.3099 325.464 72.1709 324.781L71.6566 325.639C70.5105 324.951 69.3729 324.247 68.2439 323.527L68.7817 322.684C67.6644 321.972 66.5558 321.243 65.4559 320.498L64.8951 321.326C63.789 320.576 62.6918 319.811 61.6038 319.029L62.1873 318.217C61.1116 317.444 60.0451 316.655 58.9878 315.85L58.3821 316.646C57.3195 315.837 56.2663 315.012 55.2228 314.171L55.8503 313.392C54.8195 312.562 53.7982 311.715 52.7867 310.852L52.1379 311.613C51.1222 310.747 50.1163 309.865 49.1206 308.968L49.7902 308.225C48.8071 307.338 47.8339 306.436 46.8709 305.519L46.1811 306.243C45.2153 305.323 44.2599 304.387 43.3148 303.436L44.0242 302.731C43.555 302.259 43.0883 301.783 42.6242 301.303C42.1602 300.823 41.7001 300.34 41.244 299.855L40.5155 300.54C39.5969 299.563 38.6943 298.576 37.8075 297.58L38.5545 296.915C37.6702 295.922 36.8018 294.918 35.9493 293.906L35.1843 294.55C34.3209 293.524 33.4737 292.489 32.6426 291.444L33.4251 290.822C32.5974 289.782 31.7859 288.732 30.9905 287.674L30.1911 288.274C29.3859 287.203 28.5971 286.122 27.8246 285.033L28.6404 284.455C27.8719 283.371 27.1197 282.278 26.3838 281.177L25.5523 281.732C24.808 280.618 24.0802 279.496 23.3689 278.365L24.2154 277.832C23.5082 276.708 22.8174 275.575 22.1431 274.434L21.2822 274.943C20.6009 273.79 19.9361 272.629 19.2881 271.461L20.1626 270.976C19.5185 269.814 18.8909 268.645 18.2799 267.468L17.3924 267.929C16.7757 266.741 16.1756 265.546 15.5923 264.343L16.4921 263.907C15.9125 262.712 15.3495 261.51 14.8031 260.301L13.8918 260.713C13.3409 259.494 12.8067 258.268 12.2892 257.035L13.2113 256.648C12.6972 255.423 12.1997 254.192 11.7189 252.955L10.7868 253.317C10.3024 252.071 9.83481 250.818 9.38385 249.56L10.3253 249.222C9.87735 247.972 9.446 246.716 9.03117 245.454L8.08119 245.766C7.66383 244.497 7.26311 243.221 6.87899 241.941L7.83685 241.653C7.45534 240.381 7.09032 239.104 6.74176 237.821L5.77674 238.083C5.4264 236.794 5.09258 235.5 4.77528 234.201L5.74673 233.964C5.43157 232.673 5.13276 231.378 4.85034 230.079L3.87317 230.291C3.58957 228.986 3.32234 227.677 3.07152 226.364L4.0538 226.176C3.80462 224.871 3.5717 223.562 3.35505 222.25L2.36839 222.412C2.15101 221.095 1.94987 219.775 1.76495 218.45L2.75536 218.312C2.57162 216.996 2.40401 215.677 2.25249 214.354L1.25899 214.468C1.1071 213.142 0.971268 211.813 0.851489 210.482L1.84747 210.392C1.72843 209.069 1.62535 207.742 1.53818 206.413L0.540313 206.479C0.453004 205.148 0.38156 203.814 0.325985 202.478L1.32513 202.437C1.2699 201.109 1.2304 199.779 1.20665 198.447L0.206804 198.464C0.183039 197.131 0.17495 195.796 0.182501 194.459L1.1825 194.464C1.19001 193.135 1.21309 191.805 1.2517 190.473L0.252113 190.444C0.290765 189.111 0.344879 187.776 0.41443 186.441L1.41307 186.493C1.48221 185.166 1.56669 183.838 1.66649 182.509L0.669293 182.434C0.769181 181.104 0.884302 179.774 1.01468 178.443L2.00991 178.54C2.13944 177.218 2.28408 175.895 2.44382 174.572L1.45102 174.452C1.61091 173.128 1.78587 171.803 1.97584 170.479L2.9657 170.621C3.15432 169.306 3.35785 167.991 3.57624 166.677L2.58974 166.513C2.80841 165.197 3.04191 163.881 3.29023 162.566L4.27289 162.752C4.51927 161.447 4.78034 160.142 5.05604 158.839L4.07768 158.632C4.35386 157.326 4.64467 156.021 4.95007 154.718L5.92371 154.946C6.22651 153.653 6.54373 152.362 6.87537 151.072L5.90687 150.823C6.23932 149.53 6.58614 148.238 6.94737 146.948L7.91033 147.218C8.26815 145.94 8.64017 144.664 9.02634 143.39L8.06931 143.1C8.45675 141.821 8.85838 140.545 9.27416 139.271L10.2249 139.581C10.6363 138.32 11.0616 137.061 11.5009 135.805L10.5569 135.475C10.9981 134.213 11.4533 132.954 11.9224 131.697L12.8592 132.047C13.3228 130.805 13.8 129.566 14.291 128.329L13.3616 127.96C13.855 126.718 14.3622 125.478 14.8832 124.241L15.8047 124.629C16.3192 123.408 16.8471 122.19 17.3885 120.975L16.475 120.568C17.0189 119.348 17.5763 118.13 18.1471 116.917L19.052 117.342C19.6165 116.142 20.1942 114.946 20.7851 113.753L19.889 113.309C20.4818 112.113 21.0878 110.92 21.7069 109.731L22.5938 110.193C23.2071 109.016 23.8334 107.843 24.4727 106.674L23.5953 106.194C24.2353 105.023 24.8883 103.857 25.5543 102.695L26.4219 103.193C27.0827 102.04 27.7564 100.891 28.4428 99.7474L27.5853 99.2328C28.2711 98.0901 28.9695 96.9519 29.6806 95.8186L30.5277 96.3501C31.2349 95.223 31.9547 94.1007 32.687 92.9834L31.8507 92.4352C32.5804 91.3219 33.3226 90.2136 34.0773 89.1104L34.9027 89.675C35.6536 88.5772 36.4169 87.4845 37.1925 86.3971L36.3784 85.8164C37.1519 84.7321 37.9375 83.6531 38.7354 82.5796L39.538 83.1762C40.3305 82.1099 41.1351 81.0491 41.9518 79.994L41.161 79.3819C41.9774 78.3271 42.8058 77.2779 43.6463 76.2346L44.4251 76.8619C45.2573 75.8288 46.1014 74.8013 46.9573 73.7799L46.1908 73.1376C47.049 72.1134 47.9191 71.0951 48.8009 70.083L49.5549 70.74C50.425 69.7413 51.3067 68.7486 52.2 67.7622L51.4587 67.0909C52.3563 66.0998 53.2654 65.1149 54.1861 64.1365L54.9144 64.8218C55.8218 63.8574 56.7406 62.8993 57.6707 61.9477L56.9556 61.2487C57.8886 60.2941 58.833 59.346 59.7886 58.4046L60.4904 59.117C60.966 58.6485 61.4443 58.1817 61.9255 57.7166C62.4067 57.2515 62.8894 56.7893 63.3738 56.3299L62.6856 55.6044C63.6589 54.6812 64.6385 53.7696 65.6243 52.8695L66.2986 53.608C67.2812 52.7108 68.2699 51.825 69.2646 50.9508L68.6044 50.1997C69.6135 49.3128 70.6287 48.4376 71.6497 47.5743L72.2954 48.3379C73.3116 47.4786 74.3336 46.6311 75.3613 45.7954L74.7304 45.0195C75.7718 44.1726 76.819 43.3376 77.8718 42.5147L78.4876 43.3025C79.5376 42.4818 80.5931 41.6731 81.6539 40.8764L81.0534 40.0768C82.1247 39.2723 83.2014 38.4799 84.2833 37.6998L84.8682 38.5109C85.9504 37.7305 87.0379 36.9624 88.1305 36.2066L87.5615 35.3842C88.6615 34.6232 89.7666 33.8746 90.8765 33.1384L91.4292 33.9718C92.5423 33.2335 93.6602 32.5077 94.7829 31.7945L94.2467 30.9505C95.3749 30.2337 96.5078 29.5296 97.6452 28.8381L98.1647 29.6925C99.3062 28.9985 100.452 28.3172 101.603 27.6488L101.1 26.7841C102.257 26.1119 103.418 25.4525 104.584 24.806L105.069 25.6804C106.235 25.0332 107.406 24.3989 108.581 23.7777L108.113 22.8937C109.297 22.2675 110.485 21.6545 111.676 21.0546L112.126 21.9477C113.316 21.3485 114.51 20.7624 115.707 20.1895L115.276 19.2874C116.485 18.709 117.697 18.1438 118.913 17.5921L119.326 18.5027C120.539 17.9526 121.754 17.4158 122.973 16.8924L122.578 15.9736C123.81 15.4443 125.046 14.9286 126.284 14.4265L126.66 15.3532C127.892 14.8534 129.128 14.3672 130.366 13.8945L130.009 12.9603C131.263 12.4816 132.519 12.0168 133.778 11.5658L134.115 12.5072C135.367 12.0586 136.622 11.6237 137.879 11.2025L137.561 10.2543C138.833 9.82818 140.107 9.41604 141.383 9.01795L141.681 9.97257C142.951 9.57621 144.224 9.19384 145.498 8.82548L145.22 7.86482C146.508 7.49254 147.797 7.13449 149.088 6.79067L149.345 7.75699C150.632 7.4143 151.92 7.08584 153.209 6.77162L152.972 5.80006C154.274 5.48285 155.577 5.18007 156.88 4.89171L157.096 5.86811C158.397 5.58047 159.698 5.30727 161 5.04853L160.805 4.0677C162.119 3.80675 163.432 3.56042 164.747 3.32873L164.92 4.31354C166.232 4.08225 167.545 3.86563 168.857 3.66369L168.705 2.67532C170.028 2.4718 171.351 2.28312 172.674 2.10926L172.804 3.10073C174.125 2.92709 175.446 2.76834 176.767 2.62447L176.658 1.63036C177.988 1.48547 179.318 1.35559 180.647 1.24075L180.733 2.23704C182.061 2.12231 183.388 2.02267 184.714 1.93812L184.65 0.940152C185.985 0.855048 187.319 0.785157 188.651 0.730492L188.692 1.72965C190.024 1.67503 191.354 1.6357 192.682 1.61167L192.664 0.611838C194.001 0.587658 195.337 0.57888 196.67 0.585524L196.665 1.58551C197.998 1.59215 199.328 1.61427 200.657 1.65188L200.685 0.652282C202.022 0.690123 203.356 0.743548 204.688 0.812581L204.636 1.81124C205.966 1.8802 207.294 1.96483 208.62 2.06513L208.695 1.06798C210.028 1.16888 211.359 1.28555 212.686 1.418L212.587 2.41306C213.912 2.54531 215.234 2.69338 216.553 2.85729L216.676 1.86492C218.003 2.02985 219.327 2.21071 220.646 2.40753L220.499 3.39659C221.816 3.59294 223.128 3.80525 224.437 4.03355L224.609 3.04843C225.926 3.2782 227.24 3.52406 228.549 3.78604L228.352 4.7666C229.657 5.02772 230.957 5.30493 232.253 5.59826L232.474 4.62294C233.778 4.91822 235.077 5.22972 236.372 5.55747L236.126 6.52689C237.415 6.85327 238.7 7.19586 239.978 7.55465L240.249 6.59183C241.536 6.95306 242.818 7.33062 244.095 7.72454L243.8 8.68008C245.07 9.07199 246.334 9.48019 247.593 9.90467L247.912 8.95712C249.179 9.38449 250.44 9.82829 251.695 10.2885L251.351 11.2273C252.598 11.6848 253.838 12.1585 255.073 12.6486L255.442 11.7192C256.684 12.2127 257.92 12.7225 259.15 13.2489L258.756 14.1682C259.976 14.6908 261.19 15.2298 262.396 15.7851L262.814 14.8767C264.029 15.4358 265.236 16.0113 266.435 16.6033L265.993 17.5C267.183 18.0872 268.365 18.6907 269.539 19.3105L270.006 18.4261C271.188 19.0499 272.363 19.6902 273.529 20.3469L273.038 21.2182C274.193 21.8689 275.341 22.5358 276.48 23.2189L276.994 22.3614C278.14 23.0487 279.278 23.7525 280.407 24.4726L279.869 25.3157C280.986 26.0284 282.095 26.7572 283.195 27.5022L283.756 26.6742C284.862 27.4235 285.959 28.189 287.047 28.9708L286.463 29.7829C287.539 30.5557 288.606 31.3446 289.663 32.1495L290.269 31.3538C291.331 32.1628 292.384 32.9879 293.428 33.829L292.8 34.6076C293.831 35.4384 294.852 36.2851 295.864 37.1476L296.513 36.3867C297.528 37.2528 298.534 38.1347 299.53 39.0324L298.86 39.7751C299.844 40.6615 300.817 41.5635 301.78 42.481L302.47 41.757C303.435 42.6771 304.391 43.6127 305.336 44.5639L304.626 45.2687C305.096 45.7411 305.562 46.2173 306.026 46.6974C306.49 47.1775 306.951 47.66 307.407 48.1451L308.135 47.46C309.054 48.4368 309.956 49.4235 310.843 50.4199L310.096 51.0847C310.98 52.0783 311.849 53.0816 312.701 54.0943L313.466 53.4502C314.33 54.4759 315.177 55.5111 316.008 56.5556L315.226 57.1782C316.053 58.2184 316.865 59.2679 317.66 60.3263L318.46 59.7255C319.265 60.797 320.054 61.8776 320.826 62.9671L320.01 63.5455C320.779 64.6294 321.531 65.7221 322.267 66.8234L323.098 66.2678C323.843 67.3817 324.57 68.5043 325.282 69.6352L324.435 70.1676C325.142 71.2921 325.833 72.4249 326.508 73.5657L327.368 73.0569C328.05 74.2096 328.714 75.3705 329.363 76.5392L328.488 77.0242C329.132 78.1857 329.76 79.355 330.371 80.5318L331.258 80.071C331.875 81.2588 332.475 82.4542 333.058 83.6568L332.159 84.0932C332.738 85.2881 333.301 86.4903 333.848 87.6993L334.759 87.2875C335.31 88.5065 335.844 89.7324 336.361 90.9651L335.439 91.3521C335.953 92.5766 336.451 93.8077 336.932 95.0451L337.864 94.6829C338.348 95.9292 338.816 97.1818 339.267 98.4404L338.325 98.7777C338.773 100.028 339.205 101.284 339.619 102.546L340.569 102.234C340.987 103.503 341.388 104.779 341.772 106.059L340.814 106.347C341.195 107.619 341.56 108.896 341.909 110.179L342.874 109.917C343.224 111.206 343.558 112.5 343.875 113.799L342.904 114.036C343.219 115.327 343.518 116.622 343.8 117.921L344.777 117.709C345.061 119.014 345.328 120.323 345.579 121.636L344.597 121.824C344.846 123.129 345.079 124.438 345.296 125.75L346.282 125.588C346.5 126.905 346.701 128.225 346.886 129.55L345.895 129.688C346.079 131.004 346.247 132.323 346.398 133.646L347.392 133.532C347.544 134.858 347.679 136.187 347.799 137.518L346.803 137.608C346.922 138.931 347.025 140.258 347.112 141.587L348.11 141.521C348.198 142.852 348.269 144.186 348.325 145.522L347.326 145.563C347.381 146.891 347.42 148.221 347.444 149.553L348.444 149.536C348.468 150.869 348.476 152.204 348.468 153.541L347.468 153.536C347.461 154.865 347.438 156.195 347.399 157.527L348.399 157.556C348.36 158.889 348.306 160.223 348.236 161.559L347.238 161.507C347.168 162.834 347.084 164.162 346.984 165.491L347.981 165.566C347.881 166.896 347.766 168.226 347.636 169.557L346.641 169.46C346.511 170.782 346.367 172.105 346.207 173.428L347.2 173.548C347.04 174.872 346.865 176.197 346.675 177.521L345.685 177.379C345.496 178.694 345.293 180.009 345.074 181.323L346.061 181.487C345.842 182.803 345.609 184.119 345.36 185.434L344.378 185.248C344.131 186.553 343.87 187.858 343.595 189.161L344.573 189.368C344.297 190.674 344.006 191.979 343.701 193.282L342.727 193.054C342.424 194.347 342.107 195.638 341.775 196.928L342.744 197.177C342.411 198.47 342.064 199.762 341.703 201.052L340.74 200.782C340.382 202.06 340.01 203.336 339.624 204.61L340.581 204.9C340.194 206.179 339.792 207.455 339.376 208.729L338.426 208.419C338.014 209.68 337.589 210.939 337.15 212.195L338.094 212.525C337.653 213.787 337.197 215.046 336.728 216.303L335.791 215.953C335.328 217.195 334.851 218.434 334.36 219.671L335.289 220.04C334.796 221.282 334.288 222.522 333.767 223.759L332.846 223.371C332.331 224.592 331.804 225.81 331.262 227.025L332.176 227.432C331.632 228.652 331.074 229.87 330.504 231.083L329.599 230.658C329.034 231.858 328.456 233.054 327.866 234.247L328.762 234.691C328.169 235.887 327.563 237.08 326.944 238.269L326.057 237.807C325.444 238.984 324.817 240.157 324.178 241.326L325.055 241.806C324.415 242.977 323.762 244.143 323.096 245.305L322.229 244.807C321.568 245.96 320.894 247.109 320.208 248.253L321.065 248.767C320.38 249.91 319.681 251.048 318.97 252.181L318.123 251.65C317.416 252.777 316.696 253.899 315.964 255.017L316.8 255.565C316.07 256.678 315.328 257.786 314.573 258.89L313.748 258.325C312.997 259.423 312.234 260.515 311.458 261.603L312.272 262.184C311.499 263.268 310.713 264.347 309.915 265.42L309.113 264.824C308.32 265.89 307.516 266.951 306.699 268.006L307.49 268.618C306.673 269.673 305.845 270.722 305.004 271.765L304.226 271.138C303.393 272.171 302.549 273.199 301.693 274.22L302.46 274.862C301.602 275.887 300.732 276.905 299.85 277.917L299.096 277.26C298.226 278.259 297.344 279.251 296.451 280.238L297.192 280.909C296.294 281.9 295.385 282.885 294.465 283.864L293.736 283.178C292.829 284.143 291.91 285.101 290.98 286.052L291.695 286.751Z" stroke="#1E1E1E" stroke-opacity="0.4" stroke-width="2" stroke-dasharray="4 4"/>
</svg>
