<svg width="111" height="39" viewBox="0 0 111 39" fill="none" xmlns="http://www.w3.org/2000/svg">
<g clip-path="url(#clip0_2402_1100)">
<path d="M106.413 1.97874C108.315 1.97874 109.863 3.52607 109.863 5.42958V33.9662C109.863 35.8682 108.316 37.417 106.413 37.417H4.50624C2.60419 37.417 1.0554 35.8697 1.0554 33.9662V5.42958C1.0554 3.52753 2.60273 1.97874 4.50624 1.97874H106.413ZM106.413 0.92334H4.50624C2.02029 0.92334 0 2.94363 0 5.42958V33.9662C0 36.4521 2.02029 38.4724 4.50624 38.4724H106.413C108.899 38.4724 110.919 36.4521 110.919 33.9662V5.42958C110.919 2.94363 108.899 0.92334 106.413 0.92334Z" fill="#2E2C2F"/>
<path d="M100.594 22.1583L98.9402 26.3697H98.8906L97.1651 22.1583H95.6047L98.1899 28.0469L96.7126 31.3211H98.2293L102.216 22.1583H100.596H100.594ZM88.9059 18.6637H87.4607V28.3783H88.9059V18.6637ZM83.4698 18.6637H79.9971V28.3783H81.4524V24.7012H83.4756C85.1762 24.7596 86.6024 23.4283 86.6608 21.7262C86.6608 21.7131 86.6608 21.6985 86.6608 21.6853C86.6258 19.9804 85.2142 18.6272 83.5092 18.6637C83.4961 18.6637 83.4815 18.6637 83.4683 18.6637H83.4698ZM83.5078 23.3436H81.451V20.0358H83.5136C84.4274 20.0358 85.1675 20.7759 85.1675 21.6897C85.1675 22.6035 84.4274 23.3436 83.5136 23.3436H83.5078ZM92.4662 21.9481C91.3845 21.8868 90.37 22.4707 89.881 23.437L91.1714 23.9888C91.4327 23.5115 91.9524 23.2341 92.494 23.2838C93.2574 23.2079 93.9376 23.764 94.015 24.5275C94.015 24.5304 94.015 24.5318 94.015 24.5348V24.634C93.5523 24.3844 93.0355 24.253 92.51 24.253C91.1262 24.253 89.7146 25.0136 89.7146 26.4587C89.7146 27.7593 90.8444 28.5972 92.1232 28.5972C92.8647 28.644 93.5727 28.2805 93.9639 27.6484H94.0194V28.3987H95.431V24.6603C95.431 22.9349 94.1405 21.9758 92.4764 21.9758L92.4648 21.9481H92.4662ZM92.2954 27.2732C91.821 27.2732 91.1597 27.0309 91.1597 26.4456C91.1597 25.6953 91.9816 25.4092 92.6983 25.4092C93.1611 25.3975 93.618 25.5084 94.0209 25.7347C93.9114 26.6061 93.1742 27.263 92.2954 27.2732ZM40.0204 28.5856C37.1652 28.5943 34.8339 26.3069 34.7887 23.4531C34.8339 20.5993 37.1652 18.3104 40.0204 18.3206C41.3415 18.2987 42.6144 18.8096 43.5545 19.738L42.556 20.7248C41.8787 20.0621 40.9678 19.6928 40.0204 19.7001C37.9593 19.7001 36.2879 21.3715 36.2879 23.4327C36.2879 25.4938 37.9593 27.1652 40.0204 27.1652C40.9941 27.2046 41.94 26.8309 42.6232 26.1346C43.0713 25.6515 43.3428 25.0282 43.3895 24.3698H40.0204V23.0079H44.7617C44.8128 23.2969 44.8376 23.5903 44.8332 23.8852C44.8814 25.1055 44.442 26.2952 43.6143 27.193C42.6684 28.1476 41.3619 28.6556 40.0204 28.5885V28.5856ZM52.1655 25.2778C52.24 27.0849 50.8342 28.6104 49.0285 28.6848C47.2214 28.7593 45.6959 27.3535 45.6215 25.5478C45.6171 25.4588 45.6171 25.3683 45.6215 25.2792C45.547 23.4721 46.9528 21.9466 48.7585 21.8722C50.5656 21.7977 52.0911 23.2035 52.1655 25.0092C52.1699 25.0982 52.1699 25.1887 52.1655 25.2778ZM50.7321 25.2778C50.8284 24.2618 50.0839 23.3611 49.0679 23.2648C48.052 23.1684 47.1513 23.9129 47.0549 24.9289C47.0433 25.0457 47.0433 25.1625 47.0549 25.2778C46.9586 26.2938 47.7031 27.1944 48.7191 27.2908C49.735 27.3871 50.6357 26.6426 50.7321 25.6267C50.7437 25.5099 50.7437 25.3931 50.7321 25.2778ZM59.4978 25.2778C59.4978 27.0835 58.0337 28.5476 56.228 28.5476C54.4223 28.5476 52.9582 27.0835 52.9582 25.2778C52.9582 23.4721 54.4223 22.0079 56.228 22.0079C58.0337 22.0079 59.4978 23.4721 59.4978 25.2778ZM58.0702 25.2778C58.1665 24.2618 57.4221 23.3611 56.4061 23.2648C55.3901 23.1684 54.4894 23.9129 54.3931 24.9289C54.3814 25.0457 54.3814 25.1625 54.3931 25.2778C54.2968 26.2938 55.0412 27.1944 56.0572 27.2908C57.0732 27.3871 57.9739 26.6426 58.0702 25.6267C58.0819 25.5099 58.0819 25.3931 58.0702 25.2778ZM66.6535 22.1744V28.1126C66.6535 30.5489 65.204 31.5532 63.4946 31.5532C62.213 31.5634 61.0525 30.8029 60.5503 29.6234L61.8013 29.0717C62.067 29.7592 62.718 30.2219 63.4552 30.2453C64.5573 30.2453 65.2303 29.5665 65.2303 28.3053V27.8309H65.1748C64.7369 28.3184 64.1106 28.5943 63.4552 28.5856C61.6276 28.5856 60.1474 27.1039 60.1474 25.2778C60.1474 23.4516 61.6291 21.97 63.4552 21.97C64.115 21.9554 64.7485 22.224 65.1967 22.7086H65.2522V22.1568H66.6521V22.1729L66.6535 22.1744ZM65.3689 25.2953C65.4521 24.2662 64.6858 23.364 63.6566 23.2808C63.6377 23.2794 63.6172 23.2779 63.5983 23.2765C62.5399 23.3115 61.7094 24.199 61.7444 25.2573C61.7444 25.269 61.7444 25.2822 61.7458 25.2938C61.6962 26.3434 62.5078 27.2338 63.5574 27.282C63.5705 27.282 63.5851 27.282 63.5983 27.2835C64.6172 27.2441 65.4113 26.3857 65.3719 25.3668C65.3719 25.342 65.3689 25.3186 65.3675 25.2938L65.3689 25.2953ZM69.2066 18.6739V28.3827H67.7512V18.6739H69.2066ZM74.9405 26.3697L76.0762 27.12C75.4602 28.0396 74.4252 28.5899 73.3202 28.587C71.551 28.6118 70.0971 27.1988 70.0722 25.4296C70.0722 25.38 70.0722 25.3289 70.0722 25.2792C69.9277 23.6049 71.167 22.1291 72.8414 21.9846C74.253 21.862 75.5623 22.7305 75.9988 24.0779L76.1477 24.4589L71.7378 26.2835C72.0195 26.9156 72.656 27.3127 73.3479 27.2864C74.0019 27.2762 74.6033 26.9302 74.9405 26.3711V26.3697ZM71.4619 25.1785L74.4281 23.9552C74.1931 23.4954 73.7085 23.221 73.1932 23.2546C72.1918 23.2984 71.4167 24.145 71.4605 25.1464C71.4605 25.1566 71.4605 25.1683 71.4619 25.1785Z" fill="#2E2C2F"/>
<path d="M18.1767 19.1964L8.78766 29.0336C9.17011 30.3868 10.5773 31.1751 11.9305 30.7926C12.1363 30.7343 12.3334 30.651 12.5173 30.5445L23.083 24.5274L18.1782 19.1964H18.1767Z" fill="#EA4335"/>
<path d="M27.6709 17.5236L23.1019 14.9062L17.9592 19.4198L23.1224 24.5128L27.6563 21.9247C28.8723 21.2883 29.3409 19.7876 28.7044 18.5717C28.4694 18.1235 28.1045 17.7586 27.6563 17.5236H27.6709Z" fill="#FBBC04"/>
<path d="M8.7862 10.3665C8.72927 10.5767 8.70154 10.7927 8.70154 11.0102V28.3899C8.70154 28.6074 8.73073 28.8235 8.7862 29.0337L18.4979 19.4475L8.7862 10.365V10.3665Z" fill="#4285F4"/>
<path d="M18.2468 19.7001L23.1019 14.9077L12.5509 8.8629C12.1538 8.6308 11.7028 8.50672 11.243 8.50672C10.1014 8.5038 9.09713 9.26287 8.78766 10.3606L18.2468 19.7015V19.7001Z" fill="#34A853"/>
<path d="M37.244 14.9968C35.7478 14.9968 34.7902 13.9049 34.7902 12.2014C34.7902 10.4978 35.7448 9.46143 37.244 9.46143C38.4016 9.46143 39.2818 10.1475 39.4818 11.2131H38.7796C38.5563 10.4891 37.9958 10.0774 37.2425 10.0774C36.1404 10.0774 35.4762 10.8715 35.4762 12.197C35.4762 13.5224 36.1521 14.3793 37.2425 14.3793C38.1928 14.3793 38.8468 13.7633 38.8468 12.8641V12.7678H37.336V12.1809H39.5154V12.6889C39.5154 14.137 38.6731 14.9939 37.244 14.9939V14.9968Z" fill="#2E2C2F"/>
<path d="M43.6873 14.9077H40.3693V9.55042H43.6873V10.1518H41.0364V11.87H43.5501V12.4641H41.0364V14.3048H43.6873V14.9062V14.9077Z" fill="#2E2C2F"/>
<path d="M45.9237 14.9077V10.1518H44.2347V9.55042H48.2812V10.1518H46.5922V14.9077H45.9237Z" fill="#2E2C2F"/>
<path d="M50.5452 14.9077V9.55042H51.2138V14.9077H50.5452Z" fill="#2E2C2F"/>
<path d="M52.2531 14.9077V9.55042H52.9027L55.8353 13.7559H55.8689V9.55042H56.5302V14.9077H55.8806L52.948 10.7168H52.9144V14.9077H52.2531Z" fill="#2E2C2F"/>
<path d="M63.8581 12.2306C63.8581 13.9312 62.9078 14.9968 61.3897 14.9968C59.8716 14.9968 58.9213 13.9312 58.9213 12.2306C58.9213 10.53 59.8716 9.46143 61.3897 9.46143C62.9078 9.46143 63.8581 10.53 63.8581 12.2306ZM59.6073 12.2306C59.6073 13.5487 60.2934 14.3793 61.3897 14.3793C62.486 14.3793 63.172 13.5473 63.172 12.2306C63.172 10.9139 62.486 10.0774 61.3897 10.0774C60.2934 10.0774 59.6073 10.9095 59.6073 12.2306Z" fill="#2E2C2F"/>
<path d="M64.6887 14.9077V9.55042H65.3383L68.2709 13.7559H68.3045V9.55042H68.9658V14.9077H68.3162L65.3836 10.7168H65.35V14.9077H64.6887Z" fill="#2E2C2F"/>
</g>
<defs>
<clipPath id="clip0_2402_1100">
<rect width="110.917" height="37.5491" fill="white" transform="translate(0 0.92334)"/>
</clipPath>
</defs>
</svg>
