<svg width="1257" height="407" viewBox="0 0 1257 407" fill="none" xmlns="http://www.w3.org/2000/svg">
<path opacity="0.2" d="M1257 20.0003C1257 8.95464 1248.05 0.000335693 1237 0.000335693H216C144.755 0.000335693 87 57.7556 87 129V387C87 398.046 95.9543 407 107 407H1237C1248.05 407 1257 398.046 1257 387V20.0003Z" fill="#DFD7F9"/>
<g opacity="0.1">
<mask id="mask0_2402_881" style="mask-type:alpha" maskUnits="userSpaceOnUse" x="993" y="0" width="264" height="352">
<path d="M993.5 0.500336H1233C1245.98 0.500336 1256.5 11.0216 1256.5 24.0003V351.022H1043C1015.66 351.022 993.5 328.86 993.5 301.522V0.500336Z" fill="url(#paint0_linear_2402_881)" stroke="#6246E5"/>
</mask>
<g mask="url(#mask0_2402_881)">
<circle cx="1232.01" cy="178.32" r="91.8033" stroke="#6246E5"/>
<circle cx="1224.73" cy="168.604" r="102.734" stroke="#6246E5"/>
<circle cx="1218.66" cy="160.71" r="112.45" stroke="#6246E5"/>
<circle cx="1212.58" cy="149.172" r="120.952" stroke="#6246E5"/>
<circle cx="1206.81" cy="137.938" r="129.15" stroke="#6246E5"/>
<circle cx="1197.1" cy="125.185" r="141.902" stroke="#6246E5"/>
</g>
</g>
<g opacity="0.1">
<mask id="mask1_2402_881" style="mask-type:alpha" maskUnits="userSpaceOnUse" x="0" y="46" width="480" height="362">
<rect x="479.5" y="46.5003" width="360" height="479" transform="rotate(90 479.5 46.5003)" fill="url(#paint1_linear_2402_881)" stroke="#6246E5"/>
</mask>
<g mask="url(#mask1_2402_881)">
<path d="M236.505 499.92C167.172 499.92 110.966 443.635 110.966 374.203C110.966 304.77 167.172 248.485 236.505 248.485C305.838 248.485 362.045 304.77 362.045 374.203C362.045 443.635 305.838 499.92 236.505 499.92Z" stroke="#6246E5"/>
<path d="M249.773 504.902C172.197 504.902 109.308 441.925 109.308 364.238C109.308 286.55 172.197 223.573 249.773 223.573C327.349 223.573 390.238 286.55 390.238 364.238C390.238 441.925 327.349 504.902 249.773 504.902Z" stroke="#6246E5"/>
<path d="M260.552 509.885C175.649 509.885 106.82 440.96 106.82 355.934C106.82 270.909 175.649 201.984 260.552 201.984C345.456 201.984 414.285 270.909 414.285 355.934C414.285 440.96 345.456 509.885 260.552 509.885Z" stroke="#6246E5"/>
<path d="M276.308 513.207C184.993 513.207 110.966 439.076 110.966 347.631C110.966 256.185 184.993 182.055 276.308 182.055C367.622 182.055 441.649 256.185 441.649 347.631C441.649 439.076 367.622 513.207 276.308 513.207Z" stroke="#6246E5"/>
<path d="M291.648 516.528C194.15 516.528 115.112 437.379 115.112 339.742C115.112 242.105 194.15 162.956 291.648 162.956C389.145 162.956 468.183 242.105 468.183 339.742C468.183 437.379 389.145 516.528 291.648 516.528Z" stroke="#6246E5"/>
<path d="M309.061 520.68C201.947 520.68 115.112 433.724 115.112 326.456C115.112 219.188 201.947 132.232 309.061 132.232C416.175 132.232 503.01 219.188 503.01 326.456C503.01 433.724 416.175 520.68 309.061 520.68Z" stroke="#6246E5"/>
</g>
</g>
<defs>
<linearGradient id="paint0_linear_2402_881" x1="1180.24" y1="9.86267" x2="998.232" y2="354.287" gradientUnits="userSpaceOnUse">
<stop stop-color="#747DEF"/>
<stop offset="1" stop-color="#5E3BE1"/>
</linearGradient>
<linearGradient id="paint1_linear_2402_881" x1="736.035" y1="59.4673" x2="487.704" y2="530.066" gradientUnits="userSpaceOnUse">
<stop stop-color="#747DEF"/>
<stop offset="1" stop-color="#5E3BE1"/>
</linearGradient>
</defs>
</svg>
