<svg width="112" height="37" viewBox="0 0 112 37" fill="none" xmlns="http://www.w3.org/2000/svg">
<path d="M106.492 1.03996C108.395 1.03996 109.945 2.56467 109.945 4.44035V32.5597C109.945 34.4339 108.397 35.96 106.492 35.96H4.50959C2.60613 35.96 1.05618 34.4353 1.05618 32.5597V4.44035C1.05618 2.56611 2.60467 1.03996 4.50959 1.03996H106.492ZM106.492 0H4.50959C2.02179 0 0 1.99075 0 4.44035V32.5597C0 35.0093 2.02179 37 4.50959 37H106.492C108.98 37 111.001 35.0093 111.001 32.5597V4.44035C111.001 1.99075 108.98 0 106.492 0Z" fill="#2E2C2F"/>
<path d="M18.3189 11.6122C18.1684 10.4198 18.7688 9.15544 19.4379 8.3787C20.1975 7.4984 21.5196 6.82379 22.5714 6.78064C22.7072 8.02342 22.2105 9.24462 21.4816 10.1407C20.7234 11.021 19.5051 11.7014 18.3189 11.6137V11.6122Z" fill="#2E2C2F"/>
<path d="M27.0065 22.1557C26.9919 22.2291 26.5711 23.6733 25.5266 25.1304C24.6472 26.4192 23.7371 27.6763 22.2792 27.6979C20.8666 27.7267 20.3933 26.8766 18.7688 26.8766C17.1444 26.8766 16.6272 27.6763 15.2745 27.7267C13.8838 27.7785 12.8335 26.3516 11.9234 25.0786C10.1119 22.4736 8.7066 17.7384 10.5925 14.5178C11.5026 12.9356 13.1782 11.9201 14.959 11.8913C16.3409 11.8697 17.6338 12.8162 18.484 12.8162C19.3342 12.8162 20.9104 11.6756 22.5495 11.8467C23.2346 11.8697 25.1877 12.12 26.4499 13.9267C26.352 13.9856 24.1272 15.2744 24.1505 17.9225C24.1798 21.0899 26.9685 22.1414 27.0065 22.1557Z" fill="#2E2C2F"/>
<path d="M39.1869 16.6136H36.9781L33.4078 27.5441H35.2499L36.2331 24.3321H39.8399L40.8771 27.5441H42.7703L39.1854 16.6136H39.1869ZM36.5486 22.9843L37.4733 20.1363C37.7129 19.233 37.8853 18.5454 37.9992 18.0794H38.0358C38.3075 19.1596 38.4945 19.84 38.5923 20.1363L39.5316 22.9843H36.5486Z" fill="#2E2C2F"/>
<path d="M50.986 20.6023C50.355 19.8702 49.5734 19.5005 48.6268 19.5005C47.4245 19.5005 46.5217 19.9737 45.9286 20.913H45.898L45.8001 19.6616H44.237C44.2823 20.5491 44.3042 21.4078 44.3042 22.2521V30.7402H46.085V26.6033C46.551 27.3513 47.3091 27.721 48.3697 27.721C49.347 27.721 50.1738 27.3801 50.8356 26.6853C51.5806 25.9086 51.9473 24.8499 51.9473 23.5107C51.9473 22.3054 51.6317 21.3416 50.986 20.6023ZM49.5734 25.582C49.198 26.0855 48.6794 26.3444 48.0103 26.3444C47.4391 26.3444 46.9731 26.1445 46.6196 25.7532C46.2661 25.3605 46.0864 24.8715 46.0864 24.3033V22.9857C46.0864 22.8448 46.1156 22.6678 46.1697 22.4535C46.2749 21.986 46.5159 21.6164 46.868 21.3287C47.2288 21.0482 47.6276 20.9001 48.0629 20.9001C48.7101 20.9001 49.2272 21.159 49.6114 21.6768C49.9649 22.173 50.1373 22.8016 50.1373 23.5712C50.1373 24.4069 49.9489 25.0729 49.5734 25.5835V25.582Z" fill="#2E2C2F"/>
<path d="M60.1849 20.6023C59.5538 19.8702 58.7723 19.5005 57.8257 19.5005C56.6234 19.5005 55.7221 19.9737 55.1275 20.913H55.0983L55.0004 19.6616H53.4373C53.4826 20.5491 53.5045 21.4078 53.5045 22.2521V30.7402H55.2853V26.6033C55.7513 27.3513 56.5109 27.721 57.57 27.721C58.5473 27.721 59.3741 27.3801 60.0344 26.6853C60.7795 25.9086 61.1476 24.8499 61.1476 23.5107C61.1476 22.3054 60.8321 21.3416 60.1849 20.6023ZM58.7723 25.582C58.4042 26.0855 57.8768 26.3444 57.2092 26.3444C56.638 26.3444 56.172 26.1445 55.8185 25.7532C55.465 25.3605 55.2838 24.8715 55.2838 24.3033V22.9857C55.2838 22.8448 55.3145 22.6678 55.3671 22.4535C55.4796 21.986 55.7133 21.6164 56.0668 21.3287C56.4276 21.0482 56.825 20.9001 57.2618 20.9001C57.9075 20.9001 58.4261 21.159 58.8088 21.6768C59.1623 22.173 59.3347 22.8016 59.3347 23.5712C59.3347 24.4069 59.155 25.0729 58.7723 25.5835V25.582Z" fill="#2E2C2F"/>
<path d="M70.7585 22.5787C71.2172 23.0893 71.4421 23.7251 71.4421 24.4802C71.4421 25.4123 71.112 26.1675 70.4575 26.7515C69.7359 27.3872 68.7294 27.7066 67.4365 27.7066C66.2401 27.7066 65.2876 27.4764 64.566 27.0262L64.9794 25.5676C65.7609 26.0193 66.6184 26.248 67.549 26.248C68.2181 26.248 68.744 26.0999 69.1121 25.805C69.4875 25.5087 69.676 25.1088 69.676 24.614C69.676 24.1695 69.5182 23.7999 69.2173 23.4964C68.909 23.1928 68.3977 22.9109 67.6834 22.652C65.7215 21.9342 64.753 20.89 64.753 19.522C64.753 18.6274 65.0992 17.8938 65.7829 17.317C66.468 16.7474 67.3766 16.4583 68.5117 16.4583C69.5182 16.4583 70.3596 16.6294 71.0287 16.9761L70.5788 18.3972C69.9477 18.0649 69.2406 17.8938 68.4445 17.8938C67.8207 17.8938 67.324 18.0491 66.972 18.3454C66.6783 18.6187 66.5279 18.9452 66.5279 19.3379C66.5279 19.7666 66.7017 20.1305 67.0392 20.4038C67.3328 20.6627 67.8733 20.9432 68.6549 21.2467C69.6102 21.625 70.3085 22.068 70.7599 22.5787H70.7585Z" fill="#2E2C2F"/>
<path d="M75.3732 19.6616H77.3351V20.9791H75.3732V24.8053C75.3732 25.7748 75.7194 26.2624 76.4104 26.2624C76.7259 26.2624 76.9889 26.2336 77.1992 26.1804L77.2518 27.5124C76.8983 27.6375 76.4411 27.7051 75.8699 27.7051C75.1628 27.7051 74.6223 27.4908 74.2235 27.0679C73.8262 26.6464 73.6289 25.9359 73.6289 24.9448V20.9705H72.4647V19.6601H73.6289V18.2174L75.3732 17.6996V19.6601V19.6616Z" fill="#2E2C2F"/>
<path d="M85.1359 20.6613C84.4231 19.8917 83.475 19.5062 82.3034 19.5062C81.1318 19.5062 80.1165 19.8989 79.3949 20.6756C78.6805 21.4524 78.3197 22.4521 78.3197 23.6718C78.3197 24.8916 78.6659 25.8107 79.3642 26.5731C80.0639 27.3354 81.0033 27.7195 82.1748 27.7195C83.3464 27.7195 84.369 27.3196 85.1053 26.5199C85.8036 25.7431 86.1571 24.7521 86.1571 23.5381C86.1571 22.3241 85.8182 21.3992 85.1345 20.6598L85.1359 20.6613ZM83.8285 25.4555C83.4385 26.0927 82.9038 26.4106 82.2274 26.4106C81.5511 26.4106 80.9945 26.0999 80.6118 25.4698C80.2962 24.9592 80.1384 24.3378 80.1384 23.6129C80.1384 22.8879 80.2889 22.2378 80.6118 21.7185C80.9799 21.0899 81.5292 20.7778 82.2435 20.7778C82.9578 20.7778 83.4677 21.0885 83.8446 21.7185C84.1601 22.2363 84.3179 22.8505 84.3179 23.5755C84.3179 24.3004 84.1528 24.9218 83.83 25.454L83.8285 25.4555Z" fill="#2E2C2F"/>
<path d="M91.9376 19.5292L91.9449 21.2007C91.7725 21.1719 91.5841 21.1561 91.3825 21.1561C90.7587 21.1561 90.2708 21.3862 89.9319 21.8522C89.6382 22.2579 89.4878 22.7843 89.4878 23.4057V27.5426H87.707V22.1414C87.707 21.2309 87.6924 20.4023 87.6544 19.6616H89.2029L89.2701 21.1719H89.3227C89.5097 20.6541 89.8033 20.2312 90.2094 19.9205C90.6082 19.64 91.0362 19.499 91.4949 19.499C91.66 19.499 91.8105 19.5134 91.939 19.5278L91.9376 19.5292Z" fill="#2E2C2F"/>
<path d="M99.8962 23.2288C99.8962 22.2449 99.6567 21.4236 99.1834 20.7418C98.5961 19.8989 97.7181 19.4774 96.567 19.4774C95.4159 19.4774 94.4634 19.8989 93.771 20.7418C93.1092 21.5343 92.7791 22.5254 92.7791 23.7106C92.7791 24.8959 93.1326 25.8855 93.8382 26.6033C94.5452 27.321 95.521 27.6835 96.7613 27.6835C97.7912 27.6835 98.6852 27.521 99.4448 27.1944L99.1673 25.9819C98.5201 26.2264 97.7985 26.3515 97.0096 26.3515C96.2967 26.3515 95.7168 26.166 95.2669 25.8035C94.7702 25.3964 94.516 24.7966 94.4926 24.0199H99.8276C99.8729 23.8056 99.8948 23.5395 99.8948 23.2273L99.8962 23.2288ZM94.4999 22.7699C94.5525 22.2435 94.7336 21.7861 95.0258 21.4078C95.3866 20.9345 95.8599 20.6972 96.4384 20.6972C97.0695 20.6972 97.5443 20.9417 97.8511 21.4308C98.0906 21.8076 98.2119 22.2593 98.1973 22.7771L94.4985 22.7699H94.4999Z" fill="#2E2C2F"/>
<path d="M37.2849 7.38623C39.1285 7.38623 40.2197 8.50243 40.2197 10.4284C40.2197 12.3545 39.1328 13.4908 37.2849 13.4908H35.098V7.38623H37.2849ZM36.0607 12.6695H37.1943C38.5091 12.6695 39.2351 11.8784 39.2351 10.4356C39.2351 8.99293 38.5047 8.2018 37.1943 8.2018H36.0607V12.6695Z" fill="#2E2C2F"/>
<path d="M40.8201 11.2656C40.8201 9.83583 41.6747 8.95984 42.9646 8.95984C44.2545 8.95984 45.1091 9.83583 45.1091 11.2656C45.1091 12.6954 44.2589 13.5757 42.9646 13.5757C41.6703 13.5757 40.8201 12.6997 40.8201 11.2656ZM44.1625 11.2656C44.1625 10.2803 43.6892 9.71356 42.9632 9.71356C42.2371 9.71356 41.7638 10.2803 41.7638 11.2656C41.7638 12.2509 42.2371 12.8219 42.9632 12.8219C43.6892 12.8219 44.1625 12.2552 44.1625 11.2656Z" fill="#2E2C2F"/>
<path d="M50.5346 13.4908H49.5676L48.618 10.1566H48.5961L47.6553 13.4908H46.697L45.4553 9.04041H46.383L47.2083 12.5429H47.2259L48.1666 9.04041H49.0607L50.0058 12.5429H50.0277L50.8531 9.04041H51.772L50.5346 13.4908Z" fill="#2E2C2F"/>
<path d="M52.3388 9.04035H53.2241V9.78544H53.246C53.4914 9.27768 53.972 8.96411 54.6674 8.96411C55.6637 8.96411 56.2349 9.58982 56.2349 10.6096V13.4908H55.3028V10.788C55.3028 10.1191 54.9844 9.75092 54.3402 9.75092C53.6959 9.75092 53.2664 10.2083 53.2664 10.8973V13.4908H52.3388V9.04035Z" fill="#2E2C2F"/>
<path d="M57.1639 7.38623H58.0916V13.4908H57.1639V7.38623Z" fill="#2E2C2F"/>
<path d="M58.8439 11.2656C58.8439 9.83583 59.6985 8.95984 60.9884 8.95984C62.2783 8.95984 63.1329 9.83583 63.1329 11.2656C63.1329 12.6954 62.2827 13.5757 60.9884 13.5757C59.6941 13.5757 58.8439 12.6997 58.8439 11.2656ZM62.1863 11.2656C62.1863 10.2803 61.713 9.71356 60.9869 9.71356C60.2609 9.71356 59.7876 10.2803 59.7876 11.2656C59.7876 12.2509 60.2609 12.8219 60.9869 12.8219C61.713 12.8219 62.1863 12.2552 62.1863 11.2656Z" fill="#2E2C2F"/>
<path d="M63.6675 12.225C63.6675 11.4468 64.2738 10.9693 65.3475 10.9088L66.5848 10.8369V10.4946C66.5848 9.99978 66.2459 9.70347 65.6776 9.70347C65.1401 9.70347 64.8055 9.95662 64.7237 10.3551H63.8472C63.8983 9.551 64.5952 8.95837 65.7112 8.95837C66.8273 8.95837 67.5066 9.52942 67.5066 10.4227V13.4893H66.617V12.7572H66.595C66.3336 13.252 65.7609 13.5656 65.1693 13.5656C64.284 13.5656 63.6661 13.0247 63.6661 12.225H63.6675ZM66.5848 11.8237V11.4727L65.4717 11.5403C64.918 11.5777 64.6039 11.8194 64.6039 12.2005C64.6039 12.5817 64.9312 12.8435 65.4293 12.8435C66.0779 12.8435 66.5848 12.4033 66.5848 11.8237Z" fill="#2E2C2F"/>
<path d="M68.2049 11.2656C68.2049 9.86172 68.9616 8.96847 70.0952 8.96847C70.7438 8.96847 71.2595 9.29067 71.5137 9.78117H71.5312V7.38623H72.4632V13.4908H71.5604V12.7342H71.5429C71.277 13.242 70.7614 13.567 70.104 13.567C68.9616 13.567 68.2049 12.6709 68.2049 11.2656ZM69.1544 11.2656C69.1544 12.2049 69.6146 12.7932 70.3494 12.7932C71.0842 12.7932 71.54 12.1962 71.54 11.2656C71.54 10.335 71.0637 9.73802 70.3494 9.73802C69.6351 9.73802 69.1544 10.3306 69.1544 11.2656Z" fill="#2E2C2F"/>
<path d="M74.9934 11.2656C74.9934 9.83583 75.848 8.95984 77.1379 8.95984C78.4278 8.95984 79.2824 9.83583 79.2824 11.2656C79.2824 12.6954 78.4322 13.5757 77.1379 13.5757C75.8436 13.5757 74.9934 12.6997 74.9934 11.2656ZM78.3358 11.2656C78.3358 10.2803 77.8625 9.71356 77.1365 9.71356C76.4104 9.71356 75.9371 10.2803 75.9371 11.2656C75.9371 12.2509 76.4104 12.8219 77.1365 12.8219C77.8625 12.8219 78.3358 12.2552 78.3358 11.2656Z" fill="#2E2C2F"/>
<path d="M79.9982 9.04035H80.8835V9.78544H80.9054C81.1508 9.27768 81.6314 8.96411 82.3268 8.96411C83.3231 8.96411 83.8943 9.58982 83.8943 10.6096V13.4908H82.9623V10.788C82.9623 10.1191 82.6438 9.75092 81.9996 9.75092C81.3553 9.75092 80.9259 10.2083 80.9259 10.8973V13.4908H79.9982V9.04035Z" fill="#2E2C2F"/>
<path d="M87.7743 7.98608V9.03899H88.6332V9.76251H87.7743V12.2164C87.7743 12.6019 87.9466 12.7745 88.3235 12.7745C88.4185 12.7745 88.569 12.7659 88.6288 12.7529V13.4765C88.5251 13.5024 88.3191 13.5182 88.1132 13.5182C87.1987 13.5182 86.8408 13.1758 86.8408 12.3171V9.76251H86.1834V9.03899H86.8408V7.98608H87.7728H87.7743Z" fill="#2E2C2F"/>
<path d="M89.4293 7.38623H90.3482V9.78548H90.3701C90.6199 9.26478 91.1137 8.96416 91.8003 8.96416C92.7922 8.96416 93.3853 9.61575 93.3853 10.6226V13.4908H92.4532V10.801C92.4532 10.1451 92.1187 9.7524 91.4657 9.7524C90.7777 9.7524 90.357 10.2184 90.357 10.9204V13.4922H89.4293V7.38767V7.38623Z" fill="#2E2C2F"/>
<path d="M98.1549 12.1833C98.0264 12.996 97.2449 13.5757 96.2091 13.5757C94.8812 13.5757 94.0778 12.6911 94.0778 11.2872C94.0778 9.88329 94.8944 8.95984 96.1697 8.95984C97.445 8.95984 98.2061 9.83151 98.2061 11.1807V11.4943H95.0141V11.549C95.0141 12.3228 95.4875 12.8349 96.2296 12.8349C96.7584 12.8349 97.1484 12.5731 97.2741 12.1833H98.1549ZM95.0185 10.8557H97.2784C97.2565 10.1753 96.8183 9.6963 96.1697 9.6963C95.5211 9.6963 95.0653 10.1825 95.0185 10.8557Z" fill="#2E2C2F"/>
</svg>
